<?xml version="1.0" encoding="UTF-8"?>
<!DOCTYPE svg PUBLIC "-//W3C//DTD SVG 1.1//EN" "http://www.w3.org/Graphics/SVG/1.1/DTD/svg11.dtd">
<!-- Creator: CorelDRAW X6 -->
<svg xmlns="http://www.w3.org/2000/svg" xml:space="preserve" width="3.54166in" height="0.98611in" version="1.1" style="shape-rendering:geometricPrecision; text-rendering:geometricPrecision; image-rendering:optimizeQuality; fill-rule:evenodd; clip-rule:evenodd"
viewBox="0 0 3542 986"
 xmlns:xlink="http://www.w3.org/1999/xlink">
 <defs>
  <style type="text/css">
   <![CDATA[
    .fil160 {fill:#0072C7}
    .fil161 {fill:#139C49}
    .fil82 {fill:#0095D1}
    .fil80 {fill:#0097D3}
    .fil81 {fill:#0098D3}
    .fil79 {fill:#0098D5}
    .fil77 {fill:#009AD6}
    .fil78 {fill:#009BD7}
    .fil76 {fill:#009CD8}
    .fil75 {fill:#009CDB}
    .fil74 {fill:#009EDC}
    .fil73 {fill:#009FDD}
    .fil72 {fill:#00A1DE}
    .fil71 {fill:#00A2DF}
    .fil70 {fill:#00A3DF}
    .fil69 {fill:#00A5E0}
    .fil68 {fill:#00A5E1}
    .fil67 {fill:#00A6E1}
    .fil66 {fill:#00A7E1}
    .fil65 {fill:#00A7E2}
    .fil64 {fill:#00A9E3}
    .fil63 {fill:#00AAE3}
    .fil62 {fill:#00ABE4}
    .fil61 {fill:#00ACE4}
    .fil60 {fill:#01AEE5}
    .fil58 {fill:#08AEE2}
    .fil59 {fill:#08AEE5}
    .fil57 {fill:#08AFE3}
    .fil56 {fill:#0CB0E3}
    .fil55 {fill:#0CB1E4}
    .fil53 {fill:#13B2E3}
    .fil54 {fill:#13B2E4}
    .fil52 {fill:#19B2E3}
    .fil50 {fill:#21B5E4}
    .fil51 {fill:#23B3E3}
    .fil49 {fill:#28B5E4}
    .fil47 {fill:#30B7E5}
    .fil48 {fill:#32B6E4}
    .fil46 {fill:#3BB8E5}
    .fil44 {fill:#3FBAE7}
    .fil45 {fill:#41B9E6}
    .fil41 {fill:#42BCE8}
    .fil42 {fill:#43BBE7}
    .fil43 {fill:#45B9E6}
    .fil40 {fill:#47BDE8}
    .fil39 {fill:#4BBDE8}
    .fil38 {fill:#50BEE8}
    .fil37 {fill:#53BFE8}
    .fil35 {fill:#57C1EA}
    .fil36 {fill:#58BFE8}
    .fil34 {fill:#5BC2EA}
    .fil33 {fill:#5DC2EA}
    .fil32 {fill:#5DC3EC}
    .fil31 {fill:#61C3EC}
    .fil29 {fill:#62C5F0}
    .fil30 {fill:#64C4EC}
    .fil28 {fill:#66C6F0}
    .fil26 {fill:#67C8F2}
    .fil27 {fill:#68C6F0}
    .fil25 {fill:#6BC9F2}
    .fil24 {fill:#6ECAF2}
    .fil23 {fill:#71CBF2}
    .fil22 {fill:#74CBF2}
    .fil21 {fill:#77CCF3}
    .fil20 {fill:#7BCDF3}
    .fil19 {fill:#7DCEF3}
    .fil18 {fill:#7DCFF4}
    .fil17 {fill:#80D0F4}
    .fil16 {fill:#83D1F4}
    .fil15 {fill:#85D5F7}
    .fil14 {fill:#87D5F7}
    .fil13 {fill:#8BD6F7}
    .fil12 {fill:#8DD7F7}
    .fil11 {fill:#91D8F7}
    .fil10 {fill:#94D9F8}
    .fil9 {fill:#96DAF8}
    .fil8 {fill:#9ADBF4}
    .fil6 {fill:#9CDBF4}
    .fil7 {fill:#9CDBF8}
    .fil4 {fill:#A0DCF3}
    .fil5 {fill:#A0DCF5}
    .fil3 {fill:#A2DDF3}
    .fil2 {fill:#A6DEF3}
    .fil1 {fill:#A8DFF3}
    .fil0 {fill:#ABE0F3}
    .fil162 {fill:#41A1D9;fill-rule:nonzero}
    .fil163 {fill:#42A3DA;fill-rule:nonzero}
    .fil83 {fill:#42B0E4;fill-rule:nonzero}
    .fil164 {fill:#45A6DD;fill-rule:nonzero}
    .fil84 {fill:#4AB2E4;fill-rule:nonzero}
    .fil165 {fill:#4BA9DE;fill-rule:nonzero}
    .fil166 {fill:#51ABDF;fill-rule:nonzero}
    .fil247 {fill:#51B355;fill-rule:nonzero}
    .fil85 {fill:#52B3E5;fill-rule:nonzero}
    .fil167 {fill:#54ADE0;fill-rule:nonzero}
    .fil246 {fill:#54B354;fill-rule:nonzero}
    .fil168 {fill:#56AFE1;fill-rule:nonzero}
    .fil245 {fill:#58B453;fill-rule:nonzero}
    .fil86 {fill:#59B5E6;fill-rule:nonzero}
    .fil169 {fill:#5BB1E3;fill-rule:nonzero}
    .fil87 {fill:#5CB6E6;fill-rule:nonzero}
    .fil170 {fill:#5EB3E4;fill-rule:nonzero}
    .fil244 {fill:#5EB553;fill-rule:nonzero}
    .fil142 {fill:#60B6E6;fill-rule:nonzero}
    .fil171 {fill:#63B6E5;fill-rule:nonzero}
    .fil88 {fill:#63B7E6;fill-rule:nonzero}
    .fil243 {fill:#64B752;fill-rule:nonzero}
    .fil143 {fill:#66B9E7;fill-rule:nonzero}
    .fil242 {fill:#68B952;fill-rule:nonzero}
    .fil89 {fill:#68BAE8;fill-rule:nonzero}
    .fil172 {fill:#69B8E6;fill-rule:nonzero}
    .fil241 {fill:#6BBA51;fill-rule:nonzero}
    .fil144 {fill:#6CBBE8;fill-rule:nonzero}
    .fil90 {fill:#6EBBE8;fill-rule:nonzero}
    .fil173 {fill:#6EBCE9;fill-rule:nonzero}
    .fil240 {fill:#70BB51;fill-rule:nonzero}
    .fil91 {fill:#72BCE8;fill-rule:nonzero}
    .fil239 {fill:#73BC50;fill-rule:nonzero}
    .fil174 {fill:#73BFEA;fill-rule:nonzero}
    .fil175 {fill:#75C2EC;fill-rule:nonzero}
    .fil92 {fill:#77BEE9;fill-rule:nonzero}
    .fil238 {fill:#79BD4F;fill-rule:nonzero}
    .fil176 {fill:#7AC6EE;fill-rule:nonzero}
    .fil93 {fill:#7CC0E9;fill-rule:nonzero}
    .fil237 {fill:#7DBF4F;fill-rule:nonzero}
    .fil177 {fill:#7DC8EF;fill-rule:nonzero}
    .fil236 {fill:#81BF4D;fill-rule:nonzero}
    .fil94 {fill:#81C3EB;fill-rule:nonzero}
    .fil178 {fill:#82CBF1;fill-rule:nonzero}
    .fil235 {fill:#83C14D;fill-rule:nonzero}
    .fil179 {fill:#84CDF2;fill-rule:nonzero}
    .fil95 {fill:#85C4EB;fill-rule:nonzero}
    .fil145 {fill:#87C4EB;fill-rule:nonzero}
    .fil234 {fill:#88C34C;fill-rule:nonzero}
    .fil180 {fill:#89D1F4;fill-rule:nonzero}
    .fil96 {fill:#8AC5EB;fill-rule:nonzero}
    .fil233 {fill:#8BC44C;fill-rule:nonzero}
    .fil146 {fill:#8CC6EC;fill-rule:nonzero}
    .fil181 {fill:#8CD3F5;fill-rule:nonzero}
    .fil97 {fill:#8FC8ED;fill-rule:nonzero}
    .fil232 {fill:#90C54A;fill-rule:nonzero}
    .fil147 {fill:#91C9ED;fill-rule:nonzero}
    .fil182 {fill:#91D8F7;fill-rule:nonzero}
    .fil231 {fill:#93C649;fill-rule:nonzero}
    .fil98 {fill:#94CAED;fill-rule:nonzero}
    .fil183 {fill:#95D9F2;fill-rule:nonzero}
    .fil184 {fill:#96D9EE;fill-rule:nonzero}
    .fil230 {fill:#97C749;fill-rule:nonzero}
    .fil99 {fill:#97CBED;fill-rule:nonzero}
    .fil186 {fill:#99D9E9;fill-rule:nonzero}
    .fil185 {fill:#99D9EB;fill-rule:nonzero}
    .fil229 {fill:#9CCB49;fill-rule:nonzero}
    .fil100 {fill:#9CCEEF;fill-rule:nonzero}
    .fil187 {fill:#9DDAE5;fill-rule:nonzero}
    .fil228 {fill:#A0CD47;fill-rule:nonzero}
    .fil188 {fill:#A0DAE2;fill-rule:nonzero}
    .fil101 {fill:#A1CFEF;fill-rule:nonzero}
    .fil189 {fill:#A1DADF;fill-rule:nonzero}
    .fil227 {fill:#A3CD46;fill-rule:nonzero}
    .fil190 {fill:#A4DBDB;fill-rule:nonzero}
    .fil102 {fill:#A7D1EF;fill-rule:nonzero}
    .fil191 {fill:#A7DBD8;fill-rule:nonzero}
    .fil226 {fill:#A8CF45;fill-rule:nonzero}
    .fil103 {fill:#A8D3F1;fill-rule:nonzero}
    .fil192 {fill:#A8DBD5;fill-rule:nonzero}
    .fil148 {fill:#ABD4F1;fill-rule:nonzero}
    .fil193 {fill:#ABDCD1;fill-rule:nonzero}
    .fil225 {fill:#ACD148;fill-rule:nonzero}
    .fil104 {fill:#AED5F1;fill-rule:nonzero}
    .fil195 {fill:#AEDCCC;fill-rule:nonzero}
    .fil194 {fill:#AEDCCD;fill-rule:nonzero}
    .fil224 {fill:#AFD24E;fill-rule:nonzero}
    .fil149 {fill:#B1D6F1;fill-rule:nonzero}
    .fil196 {fill:#B1DDC9;fill-rule:nonzero}
    .fil197 {fill:#B2DCC5;fill-rule:nonzero}
    .fil223 {fill:#B3D353;fill-rule:nonzero}
    .fil105 {fill:#B4D7F1;fill-rule:nonzero}
    .fil198 {fill:#B4DDC1;fill-rule:nonzero}
    .fil150 {fill:#B6D9F2;fill-rule:nonzero}
    .fil222 {fill:#B7D558;fill-rule:nonzero}
    .fil200 {fill:#B8DDBA;fill-rule:nonzero}
    .fil199 {fill:#B8DEBE;fill-rule:nonzero}
    .fil221 {fill:#B9D65F;fill-rule:nonzero}
    .fil106 {fill:#B9DAF3;fill-rule:nonzero}
    .fil107 {fill:#BBDBF3;fill-rule:nonzero}
    .fil201 {fill:#BCDEB7;fill-rule:nonzero}
    .fil220 {fill:#BDD865;fill-rule:nonzero}
    .fil159 {fill:#BDE6FA;fill-rule:nonzero}
    .fil151 {fill:#BEDCF3;fill-rule:nonzero}
    .fil203 {fill:#BEDFB2;fill-rule:nonzero}
    .fil202 {fill:#BEDFB3;fill-rule:nonzero}
    .fil158 {fill:#BFE7FA;fill-rule:nonzero}
    .fil108 {fill:#C0DCF3;fill-rule:nonzero}
    .fil204 {fill:#C1DFAD;fill-rule:nonzero}
    .fil219 {fill:#C2DA6B;fill-rule:nonzero}
    .fil205 {fill:#C2DFAA;fill-rule:nonzero}
    .fil157 {fill:#C2E8FB;fill-rule:nonzero}
    .fil218 {fill:#C3DB73;fill-rule:nonzero}
    .fil152 {fill:#C3DFF5;fill-rule:nonzero}
    .fil206 {fill:#C4E0A6;fill-rule:nonzero}
    .fil141 {fill:#C4E9FB;fill-rule:nonzero}
    .fil109 {fill:#C5E0F5;fill-rule:nonzero}
    .fil207 {fill:#C7E0A3;fill-rule:nonzero}
    .fil140 {fill:#C7EAFB;fill-rule:nonzero}
    .fil217 {fill:#C8DD79;fill-rule:nonzero}
    .fil208 {fill:#C8E09F;fill-rule:nonzero}
    .fil153 {fill:#C8E1F5;fill-rule:nonzero}
    .fil210 {fill:#CAE098;fill-rule:nonzero}
    .fil209 {fill:#CAE19C;fill-rule:nonzero}
    .fil139 {fill:#CAEBFB;fill-rule:nonzero}
    .fil110 {fill:#CBE2F5;fill-rule:nonzero}
    .fil216 {fill:#CCDF7F;fill-rule:nonzero}
    .fil138 {fill:#CCECFB;fill-rule:nonzero}
    .fil211 {fill:#CDE196;fill-rule:nonzero}
    .fil111 {fill:#CDE3F5;fill-rule:nonzero}
    .fil215 {fill:#CEE086;fill-rule:nonzero}
    .fil213 {fill:#CFE28F;fill-rule:nonzero}
    .fil212 {fill:#CFE292;fill-rule:nonzero}
    .fil137 {fill:#D0EDFB;fill-rule:nonzero}
    .fil214 {fill:#D2E28B;fill-rule:nonzero}
    .fil112 {fill:#D2E6F6;fill-rule:nonzero}
    .fil136 {fill:#D2EEFB;fill-rule:nonzero}
    .fil135 {fill:#D5EFFC;fill-rule:nonzero}
    .fil113 {fill:#D7E8F7;fill-rule:nonzero}
    .fil134 {fill:#D7EFFC;fill-rule:nonzero}
    .fil133 {fill:#DAF1FC;fill-rule:nonzero}
    .fil114 {fill:#DCECF9;fill-rule:nonzero}
    .fil132 {fill:#DCF1FC;fill-rule:nonzero}
    .fil115 {fill:#DFEDF9;fill-rule:nonzero}
    .fil131 {fill:#DFF2FC;fill-rule:nonzero}
    .fil154 {fill:#E1EEF9;fill-rule:nonzero}
    .fil130 {fill:#E1F3FC;fill-rule:nonzero}
    .fil116 {fill:#E4EFF9;fill-rule:nonzero}
    .fil129 {fill:#E4F4FD;fill-rule:nonzero}
    .fil155 {fill:#E7F0F9;fill-rule:nonzero}
    .fil128 {fill:#E7F5FD;fill-rule:nonzero}
    .fil117 {fill:#E9F2FB;fill-rule:nonzero}
    .fil127 {fill:#E9F6FD;fill-rule:nonzero}
    .fil156 {fill:#ECF4FB;fill-rule:nonzero}
    .fil126 {fill:#ECF7FD;fill-rule:nonzero}
    .fil118 {fill:#EEF4FB;fill-rule:nonzero}
    .fil125 {fill:#EEF8FD;fill-rule:nonzero}
    .fil119 {fill:#F1F5FB;fill-rule:nonzero}
    .fil124 {fill:#F1F9FD;fill-rule:nonzero}
    .fil123 {fill:#F3FAFE;fill-rule:nonzero}
    .fil120 {fill:#F7FBFE;fill-rule:nonzero}
    .fil122 {fill:#F9FCFE;fill-rule:nonzero}
    .fil121 {fill:#FEFEFE;fill-rule:nonzero}
   ]]>
  </style>
 </defs>
 <g id="Layer_x0020_1">
  <metadata id="CorelCorpID_0Corel-Layer"/>
  <path class="fil0" d="M463 29l-284 116c10,-9 20,-17 30,-25 0,0 1,-1 1,-1 2,-2 4,-3 6,-5 29,-21 60,-38 94,-52 50,-20 101,-32 152,-34z"/>
  <path class="fil0" d="M468 29l-292 120c1,-1 2,-2 3,-3l284 -116c2,0 3,0 5,0z"/>
  <path class="fil0" d="M472 28l-299 123c1,-1 2,-2 3,-3l292 -120c1,0 3,0 4,0z"/>
  <path class="fil0" d="M476 28l-306 126c1,-1 2,-2 3,-3l299 -123c1,0 3,0 4,0z"/>
  <path class="fil1" d="M480 28l-314 129c1,-1 2,-2 3,-3l306 -126c1,0 3,0 4,0z"/>
  <path class="fil2" d="M484 28l-320 131c1,-1 2,-2 3,-3l314 -129c1,0 3,0 4,0z"/>
  <path class="fil2" d="M488 28l-327 134c1,-1 2,-2 3,-3l320 -131c1,0 3,0 4,0z"/>
  <path class="fil3" d="M492 28l-334 137c1,-1 2,-2 3,-3l327 -134c1,0 3,0 4,0z"/>
  <path class="fil3" d="M504 29l-354 145c3,-3 6,-6 8,-9l334 -137c4,0 8,0 12,0z"/>
  <path class="fil3" d="M516 29l-374 153c3,-3 5,-6 8,-8l354 -145c4,0 8,0 11,1z"/>
  <path class="fil4" d="M527 30l-392 161c2,-3 5,-5 7,-8l374 -153c4,0 7,0 11,1z"/>
  <path class="fil5" d="M537 31l-409 168c2,-3 4,-5 7,-8l392 -161c3,0 7,1 10,1z"/>
  <path class="fil5" d="M547 32l-425 174c2,-3 4,-5 6,-8l409 -168c3,0 7,1 10,1z"/>
  <path class="fil6" d="M557 34l-440 181c2,-3 4,-5 6,-8l425 -174c3,0 6,1 10,1z"/>
  <path class="fil6" d="M566 35l-455 187c2,-3 4,-5 5,-8l440 -181c3,0 6,1 9,2z"/>
  <path class="fil7" d="M575 37l-469 192c2,-3 3,-5 5,-7l455 -187c3,1 6,1 9,2z"/>
  <path class="fil8" d="M583 38l-483 198c2,-2 3,-5 5,-7l469 -192c3,1 6,1 9,2z"/>
  <path class="fil9" d="M592 40l-496 203c2,-2 3,-5 5,-7l483 -198c3,1 6,1 8,2z"/>
  <path class="fil9" d="M600 42l-508 208c1,-2 3,-5 4,-7l496 -203c3,1 5,1 8,2z"/>
  <path class="fil9" d="M608 44l-520 213c1,-2 3,-5 4,-7l508 -208c3,1 5,1 8,2z"/>
  <path class="fil10" d="M615 46l-532 218c1,-2 3,-5 4,-7l520 -213c3,1 5,1 8,2z"/>
  <path class="fil11" d="M623 49l-543 223c1,-2 3,-5 4,-7l532 -218c3,1 5,1 7,2z"/>
  <path class="fil11" d="M630 51l-554 227c1,-2 2,-4 4,-7l543 -223c2,1 5,2 7,2z"/>
  <path class="fil11" d="M637 53l-565 232c1,-2 2,-4 3,-7l554 -227c2,1 5,2 7,2z"/>
  <path class="fil12" d="M644 56l-575 236c1,-2 2,-4 3,-7l565 -232c2,1 5,2 7,2z"/>
  <path class="fil12" d="M651 58l-585 240c1,-2 2,-4 3,-7l575 -236c2,1 5,2 7,3z"/>
  <path class="fil13" d="M657 61l-594 244c1,-2 2,-4 3,-6l585 -240c2,1 4,2 7,3z"/>
  <path class="fil13" d="M664 63l-604 248c1,-2 2,-4 3,-6l594 -244c2,1 4,2 6,3z"/>
  <path class="fil13" d="M670 66l-613 251c1,-2 2,-4 3,-6l604 -248c2,1 4,2 6,3z"/>
  <path class="fil14" d="M677 69l-621 255c1,-2 2,-4 3,-6l613 -251c2,1 4,2 6,3z"/>
  <path class="fil14" d="M683 72l-630 258c1,-2 2,-4 2,-6l621 -255c2,1 4,2 6,3z"/>
  <path class="fil15" d="M689 74l-638 262c1,-2 2,-4 2,-6l630 -258c2,1 4,2 6,3z"/>
  <path class="fil15" d="M695 77l-646 265c1,-2 1,-4 2,-6l638 -262c2,1 4,2 6,3z"/>
  <path class="fil15" d="M700 80l-654 268c1,-2 1,-4 2,-6l646 -265c2,1 4,2 6,3z"/>
  <path class="fil16" d="M706 83l-174 71c-48,16 -92,34 -133,53 -7,3 -14,7 -20,10l-335 137c1,-2 1,-4 2,-6l654 -268c2,1 4,2 6,3z"/>
  <path class="fil16" d="M711 86l-122 50c-20,6 -39,12 -57,18l174 -71c2,1 4,2 6,3zm-378 155l-291 119c1,-2 1,-4 2,-6l335 -137c-16,8 -31,16 -46,24z"/>
  <path class="fil16" d="M717 89l-85 35c-14,4 -28,8 -42,12l122 -50c2,1 4,2 5,3zm-415 170l-261 107c1,-2 1,-4 2,-6l291 -119c-11,6 -21,12 -31,18z"/>
  <path class="fil16" d="M722 92l-55 23c-12,3 -24,6 -35,9l85 -35c2,1 4,2 5,3zm-445 182l-238 98c1,-2 1,-4 2,-6l261 -107c-8,5 -16,10 -24,15z"/>
  <path class="fil17" d="M728 95l-28 12c-6,1 -11,3 -17,4 -5,1 -10,2 -15,4l55 -23c2,1 4,2 5,3zm-470 193l-220 90c1,-2 1,-4 2,-6l238 -98c-7,4 -14,9 -20,14z"/>
  <path class="fil18" d="M733 99l-6 2c-9,2 -19,4 -28,6l28 -12c2,1 3,2 5,3zm-492 202l-204 84c0,-2 1,-4 1,-6l220 -90c-6,4 -11,8 -17,12z"/>
  <path class="fil19" d="M226 312l-191 78c0,-2 1,-4 1,-6l204 -84c-5,4 -10,8 -15,11zm501 -211l6 -2c0,0 1,1 1,1 -2,0 -5,1 -7,2z"/>
  <path class="fil19" d="M213 322l-179 73c0,-2 1,-4 1,-6l191 -78c-4,4 -9,7 -13,11z"/>
  <path class="fil19" d="M201 333l-169 69c0,-2 1,-4 1,-6l179 -73c-3,3 -7,6 -10,8 -1,1 -1,1 -2,2z"/>
  <path class="fil20" d="M191 342l-160 65c0,-2 1,-4 1,-6l169 -69c-4,3 -7,6 -10,10z"/>
  <path class="fil21" d="M181 351l-151 62c0,-2 1,-4 1,-6l160 -65c-3,3 -6,6 -9,9z"/>
  <path class="fil21" d="M173 360l-144 59c0,-2 1,-4 1,-6l151 -62c-3,3 -6,6 -8,9z"/>
  <path class="fil21" d="M166 368l-138 56c0,-2 1,-4 1,-6l144 -59c-3,3 -5,6 -7,8z"/>
  <path class="fil22" d="M159 376l-132 54c0,-2 1,-4 1,-6l138 -56c-2,3 -5,5 -7,8z"/>
  <path class="fil23" d="M153 384l-126 52c0,-2 0,-4 1,-6l132 -54c-2,3 -4,5 -6,8z"/>
  <path class="fil23" d="M148 391l-122 50c0,-2 0,-4 1,-6l126 -52c-2,2 -4,5 -5,7z"/>
  <path class="fil23" d="M143 399l-117 48c0,-2 0,-4 1,-6l122 -50c-2,2 -3,5 -5,7z"/>
  <path class="fil24" d="M138 406l-113 46c0,-2 0,-4 1,-6l117 -48c-2,2 -3,5 -4,7z"/>
  <path class="fil25" d="M134 413l-110 45c0,-2 0,-4 0,-5l113 -46c-1,2 -3,5 -4,7z"/>
  <path class="fil25" d="M131 420l-107 44c0,-2 0,-4 0,-5l110 -45c-1,2 -2,5 -4,7z"/>
  <path class="fil25" d="M127 426l-104 42c0,-2 0,-4 0,-5l107 -44c-1,2 -2,4 -3,7z"/>
  <path class="fil26" d="M124 433l-101 41c0,-2 0,-4 0,-5l104 -42c-1,2 -2,4 -3,7z"/>
  <path class="fil27" d="M122 439l-98 40c0,-2 0,-4 0,-5l101 -41c-1,2 -2,4 -3,6z"/>
  <path class="fil28" d="M119 445l-96 39c0,-2 0,-4 0,-5l98 -40c-1,2 -2,4 -2,6z"/>
  <path class="fil28" d="M117 451l-94 39c0,-2 0,-4 0,-5l96 -39c-1,2 -1,4 -2,6z"/>
  <path class="fil29" d="M115 457l-92 38c0,-2 0,-4 0,-5l94 -39c-1,2 -1,4 -2,6z"/>
  <path class="fil29" d="M114 463l-91 37c0,-2 0,-4 0,-5l92 -38c-1,2 -1,4 -2,6z"/>
  <path class="fil29" d="M112 469l-89 37c0,-2 0,-3 0,-5l91 -37c0,2 -1,4 -1,6z"/>
  <path class="fil30" d="M111 475l-88 36c0,-2 0,-3 0,-5l89 -37c0,2 -1,4 -1,6z"/>
  <path class="fil31" d="M658 256l-173 71c54,-27 111,-50 173,-71zm-548 225l-87 36c0,-2 0,-3 0,-5l88 -36c0,2 -1,4 -1,6z"/>
  <path class="fil32" d="M714 239l-274 112c15,-8 30,-16 46,-24l173 -71c18,-6 37,-12 55,-17zm-604 248l-86 35c0,-2 0,-3 0,-5l87 -36c0,2 -1,4 -1,6z"/>
  <path class="fil32" d="M754 227l-346 142c10,-6 21,-12 31,-18l274 -112c13,-4 27,-8 41,-11zm-646 265l-85 35c0,-2 0,-3 0,-5l86 -35c0,2 0,4 -1,6z"/>
  <path class="fil32" d="M789 218l-406 166c8,-5 17,-10 25,-16l346 -142c11,-3 23,-6 34,-9zm-680 279l-84 34c0,-2 0,-3 0,-5l85 -35c0,2 0,4 0,5z"/>
  <path class="fil33" d="M818 212l-457 187c7,-5 14,-9 21,-14l406 -166c2,-1 4,-1 6,-2 8,-2 16,-4 23,-5zm-710 291l-83 34c0,-2 0,-3 0,-5l84 -34c0,2 0,4 0,5z"/>
  <path class="fil34" d="M846 206l-502 206c3,-2 5,-4 8,-6 3,-2 7,-5 10,-7l457 -187c9,-2 18,-4 27,-6zm-738 303l-82 34c0,-2 0,-3 -1,-5l83 -34c0,2 0,4 0,5z"/>
  <path class="fil35" d="M854 208l-526 216c5,-4 11,-8 16,-12l502 -206c2,0 4,-1 6,-1 1,1 2,2 2,3zm-746 306l-82 34c0,-2 0,-3 -1,-5l82 -34c0,2 0,4 0,5z"/>
  <path class="fil36" d="M857 212l-544 223c5,-4 9,-7 14,-11l526 -216c1,1 2,3 3,4zm-748 307l-81 33c0,-2 0,-3 -1,-5l82 -34c0,2 0,3 0,5z"/>
  <path class="fil36" d="M860 216l-559 229c4,-3 8,-7 13,-10l544 -223c1,1 2,3 3,4zm-751 308l-81 33c0,0 0,0 0,-1 0,0 0,0 0,0 0,0 0,0 0,0 0,0 0,0 0,0 0,0 0,0 0,0 0,0 0,0 0,0 0,0 0,0 0,0l0 0c0,0 0,0 0,0 0,0 0,0 0,0 0,0 0,0 0,0 0,0 0,0 0,0 0,0 0,0 0,0 0,0 0,0 0,0 0,0 0,0 0,0 0,0 0,0 0,0 0,0 0,0 0,0 0,0 0,0 0,0 0,0 0,0 0,0 0,0 0,0 0,0 0,0 0,0 0,0 0,0 0,0 0,0 0,0 0,0 0,0 0,-1 0,-2 0,-3l81 -33c0,2 0,3 0,5z"/>
  <path class="fil37" d="M863 220l-573 235c4,-3 7,-7 11,-10l559 -229c1,1 2,3 3,4zm-754 309l-81 33c0,0 0,0 0,0 0,0 0,0 0,0 0,0 0,0 0,0 0,0 0,0 0,0 0,0 0,0 0,0 0,0 0,0 0,0 0,0 0,0 0,0 0,0 0,0 0,0 0,0 0,0 0,0 0,0 0,0 0,0 0,0 0,0 0,0l0 0c0,0 0,0 0,0 0,0 0,0 0,0 0,0 0,0 0,0 0,0 0,0 0,0 0,0 0,0 0,0 0,0 0,0 0,0 0,0 0,-1 0,-1l0 0c0,0 0,0 0,0 0,0 0,0 0,0 0,0 0,0 0,0 0,0 0,0 0,0 0,0 0,0 0,0 0,0 0,0 0,0 0,0 0,-1 0,-1l0 0c0,0 0,0 0,0 0,0 0,0 0,0 0,0 0,0 0,0l81 -33c0,2 0,3 0,5z"/>
  <path class="fil38" d="M866 224l-586 240c3,-3 7,-6 10,-9l573 -235c1,1 2,3 3,4zm-756 310l-80 33c0,0 0,0 0,0 0,0 0,0 0,0 0,0 0,0 0,0 0,0 0,0 0,0 0,0 0,0 0,0 0,0 0,0 0,0 0,0 0,0 0,0 0,0 0,0 0,0 0,0 0,0 0,0 0,0 0,0 0,0 0,0 0,0 0,0 0,0 0,0 0,0 0,0 0,0 0,-1 0,0 0,0 0,0 0,0 0,0 0,0 0,0 0,0 0,0 0,0 0,0 0,0 0,0 0,0 0,0 0,0 0,0 0,0 0,0 0,0 0,0 0,0 0,0 0,0 0,0 0,0 0,0 0,0 0,0 0,-1 0,0 0,0 0,0 0,0 0,0 0,0 0,0 0,0 0,0 0,0 0,0 0,0 0,0 0,0 0,0 0,0 0,0 0,0 0,0 0,0 0,0 0,0 0,0 0,0 0,0 0,0 0,0 0,0 0,0 0,0 0,0 0,0 0,0 0,0 0,0 0,0 0,0 0,0 0,0 0,0 0,0 0,0 0,0 0,0 0,0 0,0 0,0 0,0 0,0 0,0 0,0 0,0 0,0 0,0 0,0 0,0 0,0 0,0 0,0 0,0 0,0 0,0 0,0l81 -33c0,2 0,3 1,5z"/>
  <path class="fil38" d="M868 228l-598 245c3,-3 6,-6 9,-9l586 -240c1,1 2,3 3,4zm-758 311l-80 33 0 0c0,-1 0,-2 0,-2 0,0 0,0 0,0 0,0 0,0 0,-1 0,0 0,0 0,0 0,0 0,0 0,-1 0,0 0,-1 0,-1 0,0 0,0 0,0 0,0 0,0 0,0 0,0 0,0 0,0l80 -33c0,2 0,3 1,5z"/>
  <path class="fil38" d="M871 232l-609 250c3,-3 5,-6 8,-9l598 -245c1,1 2,3 3,4zm-760 312l-80 33c0,-2 -1,-3 -1,-5l0 0 80 -33c0,2 0,3 1,5z"/>
  <path class="fil39" d="M874 236l-619 254c2,-3 5,-6 7,-8l609 -250c1,1 2,3 3,4zm-762 313l-80 33c0,-2 -1,-3 -1,-5l80 -33c0,2 1,3 1,5z"/>
  <path class="fil39" d="M877 240l-629 258c2,-3 4,-5 7,-8l619 -254c1,1 2,3 3,4zm-764 313l-80 33c0,-2 -1,-3 -1,-5l80 -33c0,2 1,3 1,5z"/>
  <path class="fil40" d="M879 245l-638 261c2,-3 4,-5 6,-8l629 -258c1,1 2,3 3,4zm-766 314l-80 33c0,-2 -1,-3 -1,-5l80 -33c0,2 1,3 1,5z"/>
  <path class="fil40" d="M882 249l-646 265c2,-3 4,-5 5,-8l638 -261c1,1 2,3 3,4zm-767 315l-80 33c0,-2 -1,-3 -1,-5l80 -33c0,2 1,3 1,5z"/>
  <path class="fil41" d="M885 253l-653 268c2,-2 3,-5 5,-7l646 -265c1,1 2,3 3,4zm-768 315l-81 33c0,-2 -1,-3 -1,-5l80 -33c0,2 1,3 1,5z"/>
  <path class="fil41" d="M887 257l-660 271c1,-2 3,-5 4,-7l653 -268c1,1 2,3 2,4zm-769 316l-81 33c0,-2 -1,-3 -1,-5l81 -33c0,2 1,3 1,5z"/>
  <path class="fil42" d="M890 262l-667 273c1,-2 3,-5 4,-7l660 -271c1,1 2,3 2,4zm-770 316l-81 33c0,-2 -1,-3 -1,-5l81 -33c0,2 1,3 1,5z"/>
  <path class="fil43" d="M892 266l-673 276c1,-2 2,-5 4,-7l667 -273c1,1 2,3 2,4zm-771 316l-81 33c0,-2 -1,-3 -1,-5l81 -33c1,2 1,3 2,5z"/>
  <path class="fil44" d="M894 270l-678 278c1,-2 2,-4 3,-7l673 -276c1,1 2,3 2,4zm-772 317l-82 33c0,-2 -1,-3 -1,-5l81 -33c1,2 1,3 2,5z"/>
  <path class="fil45" d="M897 274l-683 280c1,-2 2,-4 3,-6l678 -278c1,1 2,3 2,4zm-773 317l-82 34c0,-2 -1,-3 -1,-5l82 -33c1,2 1,3 2,5z"/>
  <path class="fil46" d="M899 279l-688 282c1,-2 2,-4 2,-6l683 -280c1,1 1,3 2,4zm-773 317l-82 34c0,-2 -1,-3 -1,-5l82 -34c1,1 1,3 2,4 0,0 0,0 0,0z"/>
  <path class="fil46" d="M901 283l-692 284c1,-2 1,-4 2,-6l688 -282c1,1 2,3 2,4zm-773 317l-83 34c0,-2 -1,-3 -1,-5l82 -34c1,2 1,3 2,5z"/>
  <path class="fil46" d="M903 288l-696 285c1,-2 1,-4 2,-6l692 -284c1,1 1,3 2,4zm-774 317l-83 34c-1,-2 -1,-3 -2,-5l83 -34c1,1 1,3 2,4z"/>
  <path class="fil46" d="M906 292l-700 287c0,-2 1,-4 1,-6l696 -285c1,1 1,3 2,4zm-774 317l-84 34c-1,-2 -1,-3 -2,-5l83 -34c1,1 1,3 2,4z"/>
  <path class="fil47" d="M908 296l-703 288c0,-2 1,-4 1,-6l700 -287c1,1 1,3 2,4zm-774 317l-84 34c-1,-2 -1,-3 -2,-5l84 -34c1,1 1,3 2,4z"/>
  <path class="fil47" d="M910 301l-706 290c0,-2 1,-4 1,-6l703 -288c1,1 1,3 2,4zm-774 317l-84 35c-1,-2 -1,-3 -2,-5l84 -34c1,1 1,3 2,4z"/>
  <path class="fil47" d="M912 305l-709 291c0,-2 0,-4 1,-6l706 -290c1,2 1,3 2,5zm-773 317l-85 35c-1,-2 -1,-3 -2,-5l84 -35c1,1 1,3 2,4z"/>
  <path class="fil47" d="M914 310l-711 292c0,-2 0,-4 1,-5l709 -291c1,1 1,3 2,4zm-773 317l-85 35c-1,-2 -1,-3 -2,-5l85 -35c1,1 1,3 2,4z"/>
  <path class="fil48" d="M916 314l-713 293c0,-2 0,-4 0,-5l711 -292c1,1 1,3 2,4zm-773 317l-86 35c-1,-2 -1,-3 -2,-5l85 -35c1,1 2,3 2,4z"/>
  <path class="fil49" d="M917 319l-715 293c0,-2 0,-4 0,-5l713 -293c0,1 1,1 1,2 0,1 1,2 1,3zm-772 317l-86 35c0,-1 -1,-2 -1,-3 0,-1 -1,-1 -1,-2l86 -35c1,1 2,3 2,4z"/>
  <path class="fil50" d="M919 323l-717 294c0,-2 0,-3 0,-5l715 -293c1,2 1,3 2,5zm-772 316l-87 36c-1,-1 -1,-3 -2,-4l86 -35c1,1 2,3 2,4z"/>
  <path class="fil51" d="M921 328l-718 295c0,-2 0,-3 0,-5l717 -294c1,2 1,3 2,5zm-771 316l-87 36c-1,-2 -1,-3 -2,-5l87 -36c1,1 2,3 2,4z"/>
  <path class="fil51" d="M923 333l-719 295c0,-2 0,-3 -1,-5l718 -295c1,2 1,3 2,5zm-770 316l-88 36c-1,-1 -1,-3 -2,-4l87 -36c1,1 2,3 3,4z"/>
  <path class="fil51" d="M924 337l-720 295c0,-2 -1,-3 -1,-5l719 -295c1,2 1,3 2,5zm-769 315l-88 36c-1,-1 -1,-3 -2,-4l88 -36c1,1 2,3 3,4z"/>
  <path class="fil52" d="M926 342l-89 37c-53,17 -102,37 -146,58 -10,5 -20,10 -30,15l-456 187c0,-2 -1,-3 -1,-5l720 -295c1,2 1,3 2,5zm-768 315l-89 36c-1,-1 -1,-3 -2,-4l88 -36c1,1 2,3 3,4z"/>
  <path class="fil53" d="M928 346l-38 16c-18,5 -36,11 -53,16l89 -37c1,2 1,3 2,5zm-309 127l-412 169c0,-2 -1,-3 -1,-5l456 -187c-15,7 -29,15 -42,23zm-458 188l-89 37c-1,-1 -1,-3 -2,-4l89 -36c1,1 2,3 3,4z"/>
  <path class="fil54" d="M589 491l-381 156c0,-2 -1,-3 -1,-5l412 -169c-10,6 -20,12 -30,18zm-425 174l-90 37c-1,-1 -1,-3 -2,-4l89 -37c1,1 2,3 3,4zm726 -303l38 -16c0,2 1,3 1,5 -13,4 -27,7 -40,11z"/>
  <path class="fil54" d="M565 506l-356 146c0,-2 -1,-3 -1,-5l381 -156c-8,5 -16,10 -24,15zm-399 164l-90 37c-1,-1 -2,-3 -2,-4l90 -37c1,1 2,3 3,4z"/>
  <path class="fil55" d="M546 519l-335 138c-1,-2 -1,-3 -2,-5l356 -146c-7,4 -13,9 -20,13zm-377 155l-91 37c-1,-1 -2,-3 -2,-4l90 -37c1,1 2,3 3,4z"/>
  <path class="fil56" d="M529 531l-317 130c-1,-2 -1,-3 -2,-5l335 -138c-6,4 -11,8 -17,12zm-357 147l-91 38c-1,-1 -2,-3 -2,-4l91 -37c1,1 2,3 3,4z"/>
  <path class="fil57" d="M514 542l-300 123c0,0 0,0 0,-1 -1,-1 -1,-3 -2,-4l317 -130c-5,4 -10,8 -15,11zm-340 139l-92 38c-1,-1 -2,-3 -2,-4l91 -38c1,1 2,3 3,4z"/>
  <path class="fil58" d="M501 553l-286 117c-1,-2 -1,-3 -2,-4l300 -123c-4,4 -9,7 -13,11zm-324 133l-92 38c-1,-1 -2,-3 -2,-4l92 -38c1,1 2,3 3,4z"/>
  <path class="fil59" d="M490 563l-272 112c-1,-1 -1,-3 -2,-4l286 -117c-2,2 -5,4 -7,6 -1,1 -3,3 -4,4zm-309 127l-93 38c-1,-1 -2,-3 -2,-4l92 -38c1,1 2,3 3,4z"/>
  <path class="fil59" d="M480 572l-260 107c-1,-1 -1,-3 -2,-4l272 -112c-3,3 -7,6 -10,9zm-296 122l-93 38c-1,-1 -2,-3 -2,-4l93 -38c1,1 2,3 3,4z"/>
  <path class="fil60" d="M471 581l-249 102c-1,-1 -2,-3 -2,-4l260 -107c-3,3 -6,6 -9,9zm-284 117l-94 39c-1,-1 -2,-3 -3,-4l93 -38c1,1 2,3 3,4z"/>
  <path class="fil60" d="M463 590l-238 98c-1,-1 -2,-3 -2,-4l249 -102c-3,3 -5,6 -8,9zm-273 112l-94 39c-1,-1 -2,-3 -3,-4l94 -39c1,1 2,3 3,4z"/>
  <path class="fil60" d="M455 598l-228 94c-1,-1 -2,-3 -2,-4l238 -98c-2,3 -5,6 -7,8zm-263 108l-95 39c-1,-1 -2,-3 -3,-4l94 -39c1,1 2,3 3,4z"/>
  <path class="fil60" d="M449 606l-219 90c-1,-1 -2,-3 -3,-4l228 -94c-2,3 -4,5 -6,8zm-253 104l-95 39c-1,-1 -2,-3 -3,-4l95 -39c1,1 2,3 3,4z"/>
  <path class="fil61" d="M443 614l-211 86c-1,-1 -2,-3 -3,-4l219 -90c-2,3 -4,5 -6,8zm-244 100l-96 39c-1,-1 -2,-3 -3,-4l95 -39c1,1 2,3 3,4z"/>
  <path class="fil62" d="M438 621l-203 83c-1,-1 -2,-3 -3,-4l211 -86c-2,2 -4,5 -5,7zm-236 97l-96 39c-1,-1 -2,-3 -3,-4l96 -39c1,1 2,3 3,4z"/>
  <path class="fil62" d="M433 629l-195 80c-1,-1 -2,-3 -3,-4l203 -83c-2,2 -3,5 -5,7zm-227 93l-96 40c-1,-1 -2,-3 -3,-4l96 -39c1,1 2,3 3,4z"/>
  <path class="fil63" d="M429 636l-188 77c-1,-1 -2,-3 -3,-4l195 -80c-2,2 -3,5 -4,7zm-220 90l-97 40c-1,-1 -2,-3 -3,-4l96 -40c1,1 2,3 3,4z"/>
  <path class="fil63" d="M425 642l-181 74c-1,-1 -2,-3 -3,-4l188 -77c-1,2 -3,5 -4,7zm-213 87l-97 40c-1,-1 -2,-3 -3,-4l97 -40c1,1 2,3 3,4z"/>
  <path class="fil63" d="M421 649l-174 71c-1,-1 -2,-3 -3,-4l181 -74c-1,2 -2,4 -4,7zm-206 84l-98 40c-1,-1 -2,-3 -3,-4l97 -40c1,1 2,3 3,4z"/>
  <path class="fil64" d="M418 656l-168 69c-1,-1 -2,-3 -3,-4l174 -71c-1,2 -2,4 -3,7zm-199 82l-98 40c-1,-1 -2,-3 -3,-4l98 -40c1,1 2,3 3,4z"/>
  <path class="fil64" d="M415 662l-162 66c-1,-1 -2,-3 -3,-4l168 -69c-1,2 -2,4 -3,6zm-193 79l-98 40c-1,-1 -2,-3 -3,-4l98 -40c1,1 2,3 3,4z"/>
  <path class="fil64" d="M412 669l-156 64c-1,-1 -2,-3 -3,-4l162 -66c-1,2 -2,4 -3,6zm-186 76l-99 40c-1,-1 -2,-3 -3,-4l98 -40c1,1 2,3 3,4z"/>
  <path class="fil64" d="M410 675l-150 62c-1,-1 -2,-3 -3,-4l156 -64c-1,2 -2,4 -2,6zm-181 74l-99 41c-1,-1 -2,-3 -3,-4l99 -40c1,1 2,3 4,4z"/>
  <path class="fil65" d="M408 681l-145 60c-1,-1 -2,-3 -3,-4l150 -62c-1,2 -1,4 -2,6zm-175 72l-99 41c-1,-1 -2,-3 -3,-4l99 -41c1,1 2,3 4,4z"/>
  <path class="fil66" d="M406 687l-140 57c-1,-1 -2,-3 -3,-4l145 -60c-1,2 -1,4 -2,6zm-170 70l-99 41c-1,-1 -2,-3 -3,-4l99 -41c1,1 2,3 4,4z"/>
  <path class="fil66" d="M405 693l-135 55c-1,-1 -2,-3 -3,-4l140 -57c-1,2 -1,4 -2,6zm-164 67l-99 41c-1,-1 -2,-3 -3,-4l99 -41c1,1 2,3 4,4z"/>
  <path class="fil67" d="M403 699l-130 53c-1,-1 -2,-3 -4,-4l135 -55c0,2 -1,4 -1,6zm-160 65l-100 41c-1,-1 -2,-3 -3,-4l99 -41c1,1 2,3 4,4z"/>
  <path class="fil67" d="M402 705l-125 51c-1,-1 -2,-3 -4,-4l130 -53c0,2 -1,4 -1,6zm-155 63l-100 41c-1,-1 -2,-3 -4,-4l100 -41c1,1 2,3 4,4z"/>
  <path class="fil68" d="M951 485l-185 76c57,-29 119,-55 185,-77 0,0 0,1 0,1zm-550 225l-121 50c-1,-1 -2,-3 -4,-4l125 -51c0,2 -1,4 -1,6zm-150 62l-100 41c-1,-1 -2,-3 -4,-4l100 -41c1,1 2,3 4,4z"/>
  <path class="fil69" d="M951 490l-227 93c14,-8 28,-15 42,-22l185 -76c0,2 0,4 0,5zm-551 226l-116 48c-1,-1 -2,-3 -4,-4l121 -50c0,2 -1,4 -1,6zm-146 60l-100 41c-1,-1 -2,-3 -4,-4l100 -41c1,1 3,2 4,4z"/>
  <path class="fil69" d="M951 495l-257 105c10,-6 20,-12 30,-18l227 -93c0,2 0,4 0,5zm-551 226l-112 46c-1,-1 -2,-3 -4,-4l116 -48c0,2 0,4 -1,6zm-141 58l-100 41c-1,-1 -2,-3 -4,-4l100 -41c1,1 3,2 4,4z"/>
  <path class="fil69" d="M951 501l-281 115c8,-5 16,-10 24,-15l257 -105c0,2 0,4 0,5zm-552 226l-108 44c-1,-1 -3,-3 -4,-4l112 -46c0,2 0,4 0,5zm-137 56l-100 41c-1,-1 -3,-2 -4,-4l100 -41c1,1 3,2 4,4z"/>
  <path class="fil70" d="M951 506l-302 124c7,-5 14,-9 21,-14l281 -115c0,2 0,4 0,5zm-552 226l-104 43c-1,-1 -3,-2 -4,-4l108 -44c0,2 0,4 0,5zm-133 55l-100 41c-1,-1 -3,-2 -4,-4l100 -41c1,1 3,2 4,4z"/>
  <path class="fil70" d="M951 511l-320 131c4,-3 8,-5 11,-8 2,-2 4,-3 7,-5l302 -124c0,2 0,4 0,5zm-552 226l-100 41c-1,-1 -3,-3 -4,-4l104 -43c0,2 0,4 0,5zm-129 53l-100 41c-1,-1 -3,-2 -4,-4l100 -41c1,1 3,2 4,4z"/>
  <path class="fil70" d="M951 517l-335 138c5,-4 10,-8 16,-12l320 -131c0,2 0,4 0,5zm-551 226l-96 39c-1,-1 -3,-2 -4,-4l100 -41c0,2 0,4 0,5zm-125 51l-100 41c-1,-1 -3,-2 -4,-4l100 -41c1,1 3,2 4,4z"/>
  <path class="fil70" d="M950 522l-349 143c4,-4 9,-7 14,-11l335 -138c0,2 0,4 0,5zm-551 226l-92 38c-1,-1 -3,-2 -4,-4l96 -39c0,2 0,3 0,5zm-121 50l-100 41c-1,-1 -3,-2 -4,-4l100 -41c1,1 3,2 4,4z"/>
  <path class="fil70" d="M950 528l-361 148c4,-3 8,-7 12,-10l349 -143c0,2 0,4 0,5zm-550 226l-89 36c-1,-1 -3,-2 -4,-4l92 -38c0,2 0,3 0,5zm-118 48l-100 41c-1,-1 -3,-2 -4,-4l100 -41c1,1 3,2 4,4z"/>
  <path class="fil71" d="M949 533l-371 152c4,-3 7,-7 11,-10l361 -148c0,2 0,4 0,5zm-549 225l-85 35c-1,-1 -3,-2 -4,-4l89 -36c0,2 0,3 0,5zm-114 47l-99 41c-1,-1 -3,-2 -4,-4l100 -41c1,1 3,2 4,4z"/>
  <path class="fil72" d="M949 539l-380 156c3,-3 7,-6 10,-9l371 -152c0,2 0,4 -1,6zm-548 225l-82 34c-1,-1 -3,-2 -4,-4l85 -35c0,2 0,3 1,5zm-111 45l-99 41c-1,-1 -3,-2 -4,-4l99 -41c1,1 3,2 4,4z"/>
  <path class="fil73" d="M948 544l-389 159c3,-3 6,-6 9,-9l380 -156c0,2 0,4 -1,5zm-547 224l-79 32c-1,-1 -3,-2 -4,-4l82 -34c0,2 0,3 1,5zm-107 44l-99 41c-1,-1 -3,-2 -4,-4l99 -41c1,1 3,2 4,4z"/>
  <path class="fil72" d="M948 550l-396 162c3,-3 5,-6 8,-9l389 -159c0,2 0,4 -1,6zm-545 224l-75 31c-1,-1 -3,-2 -4,-4l79 -32c0,2 1,3 1,5zm-104 43l-99 40c-1,-1 -3,-2 -4,-3l99 -41c1,1 3,2 4,4z"/>
  <path class="fil73" d="M947 555l-403 165c2,-3 5,-6 7,-8l396 -162c0,0 0,0 0,0 0,0 0,0 0,0 0,0 0,0 0,0 0,0 0,0 0,0 0,0 0,0 0,0 0,1 0,3 -1,4 0,0 0,0 0,0 0,0 0,0 0,0 0,0 0,0 0,0 0,0 0,0 0,0 0,0 0,0 0,0 0,0 0,0 0,0 0,0 0,0 0,0zm-544 223l-72 30c-1,-1 -3,-2 -4,-4l75 -31c0,2 1,3 1,5zm-101 41l-98 40c-1,-1 -3,-2 -4,-3l99 -40c1,1 3,2 4,4z"/>
  <path class="fil73" d="M946 561l-408 167c2,-3 4,-5 7,-8l403 -165c0,0 0,0 0,0 0,0 0,0 0,0 0,0 0,0 0,0 0,0 0,1 0,1 0,0 0,0 0,0 0,0 0,0 0,1 0,0 0,0 0,0 0,0 0,0 0,0 0,0 0,0 0,0 0,0 0,0 0,0 0,0 0,0 0,0 0,1 0,2 0,2 0,0 0,0 0,0 0,0 0,0 0,0 0,0 0,0 0,0zm-542 222l-69 28c-1,-1 -3,-2 -4,-4l72 -30c0,2 1,3 1,5zm-98 40l-98 40c-2,-1 -3,-2 -5,-3l98 -40c1,1 3,2 4,4z"/>
  <path class="fil73" d="M945 566l-413 169c2,-3 4,-5 6,-8l408 -167c0,0 0,0 0,0 0,0 0,1 0,1 0,0 0,0 0,0 0,0 0,1 0,1 0,0 0,0 0,0 0,0 0,0 0,0 0,0 0,0 0,0 0,0 0,0 0,0 0,0 0,0 0,0 0,0 0,0 0,0 0,0 0,0 0,0 0,0 0,0 0,0 0,0 0,0 0,0 0,0 0,0 0,0 0,0 0,0 0,0 0,0 0,0 0,0l0 1zm-540 221l-66 27c-1,-1 -3,-2 -4,-4l69 -28c0,2 1,3 1,5zm-95 39l-97 40c-2,-1 -3,-2 -5,-3l98 -40c1,1 3,2 4,4zm635 -261c0,0 0,1 0,1l0 -1z"/>
  <path class="fil73" d="M944 572l-418 171c2,-2 3,-5 5,-7l413 -169c0,2 -1,4 -1,6zm-538 220l-63 26c-1,-1 -3,-2 -4,-4l66 -27c0,2 1,3 1,5zm-92 38l-97 40c-2,-1 -3,-2 -5,-3l97 -40c1,1 3,2 4,4z"/>
  <path class="fil74" d="M943 578l-421 173c2,-2 3,-5 5,-7l418 -171c0,2 -1,4 -1,6zm-535 219l-60 25c-1,-1 -3,-2 -4,-4l63 -26c0,2 1,3 1,5zm-89 37l-96 40c-2,-1 -3,-2 -5,-3l97 -40c1,1 3,2 4,4z"/>
  <path class="fil75" d="M942 584l-425 174c1,-2 3,-5 4,-7l421 -173c0,2 -1,4 -1,6zm-533 218l-57 24c-1,-1 -3,-2 -4,-4l60 -25c0,2 1,3 1,5zm-86 35l-96 39c-2,-1 -3,-2 -5,-3l96 -40c1,1 3,2 4,4z"/>
  <path class="fil75" d="M941 589l-427 175c1,-2 3,-5 4,-7l425 -174c0,2 -1,4 -1,6zm-530 217l-55 22c-1,-1 -3,-2 -4,-4l57 -24c0,2 1,3 2,5zm-84 34l-95 39c-2,-1 -3,-2 -5,-3l96 -39c1,1 3,2 4,4z"/>
  <path class="fil75" d="M939 595l-429 176c1,-2 2,-4 3,-7l427 -175c0,2 -1,4 -1,6zm-527 216l-52 21c-1,-1 -3,-2 -4,-4l55 -22c1,2 1,3 2,5zm-81 33l-94 39c-2,-1 -3,-2 -5,-3l95 -39c1,1 3,2 4,4z"/>
  <path class="fil76" d="M938 601l-431 177c1,-2 2,-4 3,-7l429 -176c0,2 -1,4 -1,6zm-524 215l-49 20c-1,-1 -3,-2 -4,-3l52 -21c1,2 1,3 2,5zm-78 32l-93 38c-2,-1 -3,-2 -5,-3l94 -39c1,1 3,2 4,4z"/>
  <path class="fil76" d="M937 607l-432 177c1,-2 2,-4 3,-6l431 -177c0,2 -1,4 -1,6zm-521 214l-47 19c-1,-1 -3,-2 -4,-4l49 -20c1,2 1,3 2,5zm-76 31l-93 38c0,0 0,0 0,0 0,0 0,0 0,0 0,0 0,0 0,0 0,0 0,0 0,0 0,0 0,0 0,0 -2,-1 -3,-2 -4,-3l93 -38c1,1 3,2 4,4zm-93 38c0,0 0,0 0,0l0 0z"/>
  <path class="fil76" d="M935 613l-433 178c1,-2 2,-4 2,-6l432 -177c-1,2 -1,4 -2,6zm-517 212l-44 18c-1,-1 -3,-2 -4,-3l47 -19c0,1 1,2 1,3 0,0 0,1 1,1zm-73 30l-92 38c0,0 0,0 0,0 -1,-1 -2,-1 -3,-2 0,0 0,0 0,0 0,0 -1,-1 -1,-1 0,0 0,0 0,0 0,0 0,0 -1,0 0,0 0,0 0,0 0,0 0,0 0,0 0,0 0,0 0,0 0,0 0,0 0,0 0,0 0,0 0,0 0,0 0,0 0,0 0,0 0,0 0,0 0,0 0,0 0,0l93 -38c1,1 3,2 4,4z"/>
  <path class="fil77" d="M933 619l-433 178c1,-2 1,-4 2,-6l433 -178c-1,2 -1,4 -2,6zm-514 211l-42 17c-1,-1 -3,-2 -4,-4l44 -18c1,1 1,3 2,5zm-71 29l-91 37c0,0 0,0 0,0 0,0 0,0 0,0 0,0 0,0 0,0 0,0 0,0 0,0 0,0 0,0 0,0 0,0 0,0 0,0 0,0 0,0 0,0l92 -37zm-92 36c0,0 0,0 0,0 0,0 0,0 0,0 0,0 0,0 0,0 0,0 0,0 -1,0 0,0 0,0 0,0 0,0 0,0 -1,0 0,0 0,0 0,0 0,0 0,0 0,0l1 1zm-2 -1c0,0 0,0 -1,0 0,0 0,0 0,0 -1,0 -1,-1 -2,-1 0,0 0,0 0,0l92 -38c1,1 3,2 4,4l-93 36z"/>
  <path class="fil78" d="M932 625l-433 178c1,-2 1,-4 2,-6l433 -178c-1,2 -1,4 -2,6zm-510 209l-39 16c-1,-1 -3,-2 -4,-3l42 -17c1,1 1,3 2,4zm-68 28l-90 37c0,0 0,0 0,0 0,0 -1,0 -1,0 0,0 0,0 0,0 0,0 0,0 0,0 0,0 0,0 0,0 0,0 0,0 0,0 0,0 0,0 0,0l91 -36zm-92 36c0,0 0,0 0,0 0,0 0,0 0,0 0,0 0,0 0,0 0,0 0,0 0,0 0,0 0,0 0,0 0,0 0,0 0,0 0,0 0,0 0,0 0,0 -1,0 -1,-1 0,0 0,0 0,0 0,0 0,0 -1,0l0 0c0,0 0,0 0,0 0,0 0,0 0,0 0,0 0,0 0,0 0,0 0,0 0,0l91 -37c1,1 3,2 4,3l-92 36zm0 0c0,0 0,0 0,0l0 0z"/>
  <path class="fil77" d="M930 631l-433 178c0,-2 1,-4 1,-6l433 -178c-1,2 -1,4 -2,6zm-506 208l-37 15c-2,-1 -3,-2 -4,-3l39 -16c1,1 1,3 2,4zm-66 27l-88 36c-1,0 -1,-1 -2,-1 0,0 0,0 0,0 0,0 0,0 0,0 0,0 0,0 0,0 0,0 0,0 0,0 0,0 0,0 0,0 0,0 0,0 0,0 0,0 0,0 0,0 0,0 0,0 0,0 0,0 0,0 -1,0l0 0c0,0 0,0 0,0 0,0 0,0 0,0 0,0 0,0 0,0 0,0 0,0 0,0 0,0 0,0 0,0 0,0 0,0 0,0 0,0 0,0 0,0 0,0 0,0 0,0 0,0 0,0 0,0 0,0 0,0 0,0 0,0 0,0 0,0 0,0 0,0 0,0 0,0 0,0 0,0 0,0 0,0 0,0 0,0 0,0 0,0 0,0 0,0 0,0l90 -37c1,1 3,2 4,3z"/>
  <path class="fil77" d="M928 637l-432 177c0,-2 1,-4 1,-6l433 -178c-1,2 -1,4 -2,6zm-502 206l-34 14c-1,-1 -3,-2 -4,-3l37 -15c1,1 1,3 2,4zm-64 26l-87 36c0,0 0,0 0,0 0,0 0,0 0,0 0,0 0,0 0,0 0,0 0,0 0,0 0,0 0,0 0,0 0,0 0,0 0,0 0,0 0,0 0,0 0,0 0,0 -1,0 0,0 0,0 0,0 0,0 0,0 0,0 0,0 0,0 0,0 0,0 0,0 0,0 0,0 0,0 0,0 0,0 0,0 0,0 0,0 0,0 0,0 0,0 0,0 0,0 0,0 0,0 0,0 0,0 0,0 0,0 0,0 0,0 0,0 0,0 0,0 0,0 0,0 0,0 0,0 0,0 0,0 0,0 0,0 0,0 0,0 0,0 0,0 0,0 0,0 0,0 0,0 0,0 0,0 0,0 0,0 0,0 0,0 0,0 0,0 0,0 0,0 0,0 0,0 0,0 0,0 0,0 0,0 0,0 0,0 0,0 0,0 0,0 -1,0 -1,-1 -2,-1l88 -36c1,1 3,2 4,3z"/>
  <path class="fil77" d="M926 643l-431 177c0,-2 1,-4 1,-6l432 -177c-1,2 -1,4 -2,6zm-498 204l-32 13c-1,-1 -3,-2 -4,-3l34 -14c1,1 1,3 2,4zm-61 25l-86 35 86 -35zm-86 35c0,0 0,0 0,0 0,0 0,0 0,0 0,0 0,0 0,0 0,0 0,0 0,0 0,0 0,0 0,0 0,0 0,0 0,0 0,0 0,0 -1,0 0,0 0,0 0,0 0,0 0,0 0,0 0,0 0,0 -1,0 0,0 0,0 -1,0 0,0 0,0 0,0 0,0 0,0 0,0 0,0 0,0 0,0l0 0c0,0 0,0 0,0 0,0 0,0 0,0 0,0 0,0 0,0 0,0 0,0 0,0 0,0 0,0 0,0 0,0 0,0 0,0 0,0 0,0 0,0 0,0 0,0 0,0 0,0 0,0 0,0 0,0 0,0 0,0 0,0 0,0 0,0 0,0 0,0 0,0 0,0 0,0 0,0 0,0 0,0 0,0 0,0 0,0 0,0 0,0 0,0 0,0 0,0 0,0 0,0 0,0 0,0 0,0 0,0 0,0 0,0 0,0 0,0 0,0 0,0 0,0 0,0 0,0 0,0 0,0 0,0 0,0 0,0 0,0 0,0 0,0l87 -36c1,1 3,2 4,3l-86 35z"/>
  <path class="fil79" d="M924 649l-430 176c0,-2 0,-4 1,-6l431 -177c-1,2 -1,4 -2,6zm-494 202l-30 12c-2,-1 -3,-2 -5,-3l32 -13c1,1 1,3 2,4zm-59 24l-84 35c0,0 -1,0 -1,0 0,0 0,0 0,0 0,0 0,0 0,0 0,0 0,0 0,0 0,0 0,0 0,0 0,0 0,0 0,0 0,0 0,0 0,0 0,0 0,0 0,0 0,0 0,0 0,0 0,0 0,0 0,0 0,0 0,0 0,0 0,0 0,0 0,0 0,0 0,0 0,0 0,0 0,0 0,0 0,0 0,0 0,0 0,0 0,0 0,0 0,0 0,0 0,0 0,0 0,0 0,0 0,0 0,0 0,0 0,0 0,0 0,0 0,0 0,0 0,0 0,0 0,0 0,0 0,0 0,0 0,0 0,0 0,0 0,0 0,0 0,0 0,0 0,0 0,0 0,0 0,0 0,0 0,0 0,0 0,0 0,0 0,0 0,0 0,0 0,0 0,0 0,0 0,0 -1,0 -1,-1 0,0 0,0 0,0l86 -35c1,1 3,2 4,3z"/>
  <path class="fil80" d="M921 656l-428 175c0,-2 0,-4 0,-5l430 -176c-1,2 -2,4 -2,6zm-489 201l-27 11c-2,-1 -3,-2 -5,-3l30 -12c1,1 1,3 2,4zm-57 23l-83 34c0,0 0,0 0,0 0,0 0,0 0,0 0,0 0,0 0,0 0,0 0,0 0,0 0,0 0,0 0,0 0,0 0,0 0,0 0,0 0,0 0,0 0,0 0,0 -1,0 0,0 0,0 0,0 0,0 -1,0 -1,-1 0,0 0,0 0,0 -1,0 -1,-1 -2,-1 0,0 0,0 0,0 0,0 0,0 0,0 0,0 0,0 0,0 0,0 0,0 0,0 0,0 0,0 0,0 0,0 0,0 0,0 0,0 0,0 0,0l84 -35c1,1 3,2 4,3z"/>
  <path class="fil81" d="M919 662l-425 174c0,-2 0,-4 0,-5l428 -175c-1,2 -2,4 -2,6zm-484 199l-25 10c-2,-1 -3,-2 -5,-3l27 -11c1,1 2,3 2,4zm-55 22l-81 33c0,0 -1,0 -1,0 0,0 0,0 0,0 0,0 0,0 0,0 0,0 0,0 0,0 0,0 0,0 0,0 0,0 0,0 0,0 0,0 0,0 0,0 0,0 0,0 0,0 0,0 0,0 0,0 0,0 0,0 0,0 0,0 0,0 0,0 0,0 0,0 0,0 0,0 0,0 0,0 0,0 0,0 0,0 0,0 0,0 0,0 0,0 0,0 0,0 0,0 0,0 0,0 0,0 0,0 0,0 0,0 -1,0 -1,0 0,0 0,0 0,0 0,0 0,0 0,0 0,0 0,0 0,0 0,0 0,0 0,0 0,0 0,0 0,0 0,0 0,0 0,0 0,0 0,0 0,0 0,0 0,0 0,0 0,0 0,0 0,0l83 -34c1,1 3,2 5,3z"/>
  <path class="fil80" d="M916 668l-423 173c0,-2 0,-4 0,-5l425 -174c-1,2 -2,4 -3,6zm-479 197l-23 9c-2,-1 -3,-2 -5,-3l25 -10c1,1 2,3 2,4zm-53 22l-79 33c0,0 0,0 0,0 0,0 0,0 0,0 0,0 0,0 0,0 0,0 0,0 0,0 0,0 0,0 0,0 0,0 0,0 -1,0 0,0 0,0 0,0 0,0 0,0 -1,0 0,0 0,0 0,0 0,0 0,0 0,0 0,0 0,0 0,0 0,0 0,0 0,0 0,0 0,0 -1,0 0,0 0,0 0,0 0,0 0,0 -1,0 0,0 0,0 0,0 0,0 0,0 -1,0 0,0 0,0 0,0 0,0 -1,0 -1,0l81 -33c2,1 3,2 5,3z"/>
  <path class="fil80" d="M914 674l-420 172c0,-2 0,-3 0,-5l423 -173c-1,2 -2,4 -3,6zm-474 195l-21 9c-2,-1 -3,-2 -5,-3l23 -9c1,1 2,3 2,4zm-51 21l-78 32c0,0 0,0 0,0 0,0 0,0 0,0 0,0 0,0 0,0 0,0 0,0 0,0 0,0 0,0 0,0 0,0 0,0 0,0 0,0 0,0 0,0 0,0 0,0 0,0 0,0 0,0 0,0 0,0 0,0 0,0 0,0 0,0 0,0 0,0 0,0 0,0 0,0 0,0 0,0l80 -31zm-81 31c0,0 0,0 0,0 0,0 0,0 -1,0 0,0 0,0 0,0 0,0 0,0 0,0 0,0 0,0 0,0 0,0 0,0 0,0 0,0 0,0 0,0 0,0 0,0 0,0 0,0 0,0 0,0 0,0 0,0 0,0 0,0 0,0 0,0 0,0 0,0 0,0 0,0 0,0 0,0 0,0 0,0 0,0 0,0 0,0 0,0l0 0c0,0 0,0 0,0 0,0 0,0 0,0 0,0 0,0 0,0 0,0 0,0 0,0 0,0 0,0 0,0 0,0 0,0 0,0l79 -33c2,1 3,2 5,3l-81 31zm0 0c0,0 0,0 0,0l0 0z"/>
  <path class="fil82" d="M911 681l-417 171c0,-2 0,-3 0,-5l420 -172c-1,2 -2,4 -3,6zm-469 192l-19 8c-2,-1 -3,-2 -5,-3l21 -9c1,1 2,3 2,4zm-48 20l-76 31c0,0 0,0 -1,0 0,0 0,0 0,0 0,0 0,0 0,0l0 0c0,0 -1,0 -1,0 0,0 0,0 0,0 0,0 0,0 0,0 0,0 -1,0 -1,0 0,0 0,0 0,0 0,0 0,0 0,0 0,0 0,0 0,0 0,0 0,0 0,0 0,0 0,0 0,0 0,0 0,0 0,0 0,0 0,0 0,0 0,0 0,0 0,0 0,0 0,0 0,0 0,0 0,0 0,0 0,0 0,0 0,0 0,0 0,0 0,0 0,0 0,0 0,0 0,0 0,0 0,0 0,0 0,0 0,0 0,0 0,0 0,0l78 -32c2,1 3,2 5,3z"/>
  <path class="fil82" d="M908 687l-413 169c0,-2 0,-3 -1,-5l417 -171c-1,2 -2,4 -3,7zm-464 190l-17 7c-2,-1 -3,-2 -5,-3l19 -8c1,1 2,3 3,4zm-46 19l-74 30c0,0 0,0 0,0 0,0 0,0 0,0 0,0 0,0 0,0 0,0 0,0 0,0 0,0 0,0 0,0 0,0 0,0 0,0 0,0 0,0 0,0 0,0 0,0 0,0 0,0 0,0 0,0 0,0 0,0 0,0 0,0 0,0 0,0 0,0 0,0 0,0 0,0 0,0 0,0 0,0 0,0 0,0 0,0 0,0 -1,0 0,0 0,0 0,0 0,0 0,0 0,0 0,0 0,0 0,0 0,0 0,0 0,0 0,0 0,0 0,0 0,0 0,0 0,0l78 -28zm-79 28c0,0 0,0 0,0 0,0 0,0 0,0 0,0 0,0 0,0 0,0 0,0 0,0 0,0 0,0 0,0 0,0 0,0 -1,0l76 -31c2,1 3,2 5,3l-79 28zm0 0c0,0 0,0 0,0l0 0z"/>
  <path class="fil82" d="M905 694l-409 168c0,-2 -1,-3 -1,-5l413 -169c-1,2 -2,4 -3,7zm-458 188l-14 6c-2,-1 -3,-2 -5,-3l17 -7c1,1 2,3 3,4zm-44 18l-71 29c0,0 0,0 -1,0 0,0 0,0 0,0 0,0 0,0 0,0 0,0 0,0 0,0 0,0 0,0 0,0 0,0 0,0 0,0 0,0 0,0 0,0 0,0 0,0 0,0 0,0 0,0 0,0 0,0 -1,0 -1,0 0,0 0,0 0,0 -1,0 -1,0 -2,-1l0 0c0,0 -1,0 -1,0 0,0 0,0 0,0l74 -30c2,1 3,2 5,3z"/>
  <path class="fil82" d="M902 701l-405 166c0,-2 -1,-3 -1,-5l409 -168c-1,2 -2,4 -3,7zm-452 185l-12 5c-2,-1 -3,-2 -5,-3l14 -6c1,1 2,3 3,4zm-42 17l-69 28c0,0 -1,0 -1,0 0,0 0,0 0,0 0,0 0,0 -1,0 0,0 0,0 -1,0 0,0 0,0 0,0 0,0 0,0 -1,0 0,0 0,0 0,0 0,0 0,0 0,0 0,0 0,0 0,0 0,0 0,0 0,0 0,0 0,0 0,0 0,0 0,0 0,0 0,0 0,0 0,0 0,0 0,0 0,0 0,0 0,0 0,0 0,0 0,0 0,0 0,0 0,0 0,0 0,0 0,0 0,0 0,0 0,0 0,0l71 -29c2,1 3,2 5,3z"/>
  <path class="fil82" d="M898 707l-401 164c0,-2 -1,-3 -1,-5l405 -166c-1,2 -2,4 -3,7zm-446 183l-10 4c-2,-1 -3,-2 -5,-3l12 -5c1,1 2,3 3,4zm-40 17l-67 27c0,0 0,0 0,0 -1,0 -2,-1 -3,-1 0,0 0,0 0,0 0,0 0,0 -1,0 0,0 0,0 0,0 0,0 0,0 -1,0 0,0 0,0 0,0 0,0 0,0 0,0 0,0 0,0 -1,0 0,0 0,0 0,0 0,0 0,0 -1,0l69 -28c2,1 3,2 5,3z"/>
  <path class="fil82" d="M894 714l-396 162c0,-2 -1,-3 -1,-5l401 -164c-1,2 -2,5 -4,7zm-440 180l-8 3c-2,-1 -3,-2 -5,-3l10 -4c1,1 2,3 3,4zm-38 16l-64 26c-2,-1 -5,-2 -7,-2 0,0 0,0 0,0l67 -27c2,1 3,2 5,3z"/>
  <path class="fil82" d="M352 936l64 -26c21,15 44,31 67,46 -45,0 -89,-7 -131,-20zm94 -39l8 -3c4,6 8,12 12,18 -7,-5 -14,-10 -21,-15zm52 -21l396 -162c-18,33 -40,64 -65,92 0,0 0,0 -1,1 -2,2 -4,4 -5,6 0,0 -1,1 -1,1 -1,1 -3,3 -4,4 -43,44 -95,80 -155,104l0 0c-40,16 -81,27 -122,32 -17,-21 -29,-41 -37,-60 -2,-6 -4,-11 -6,-17z"/>
  <path class="fil83" d="M814 164l-105 -79c39,21 74,48 105,79z"/>
  <path class="fil84" d="M708 85l105 79c13,12 24,26 35,40l-188 -141c16,7 32,14 48,23z"/>
  <path class="fil85" d="M661 62l188 141c8,9 15,19 21,29l-243 -182c11,4 23,8 34,12z"/>
  <path class="fil86" d="M627 50l243 182c6,8 11,16 16,25l-287 -215c9,2 19,5 28,8z"/>
  <path class="fil87" d="M599 42l287 215c4,7 8,15 12,22l-324 -242c8,2 17,3 25,5z"/>
  <path class="fil88" d="M574 37l324 242c4,7 7,14 10,21l-357 -266c8,1 15,2 22,4z"/>
  <path class="fil89" d="M552 33l357 266c3,6 6,13 8,19l-386 -288c7,1 14,1 21,2z"/>
  <path class="fil90" d="M531 31l386 288c2,6 5,12 7,18l-412 -308 0 0c6,0 13,1 19,1z"/>
  <path class="fil91" d="M512 29l412 308c2,6 4,12 6,17l-436 -326c6,0 12,0 18,1z"/>
  <path class="fil92" d="M494 29l436 326c2,6 3,11 5,17l-458 -342c6,0 12,0 17,0z"/>
  <path class="fil93" d="M476 29l458 342c1,5 3,11 4,16l-479 -358c5,0 11,-1 16,-1z"/>
  <path class="fil94" d="M460 30l479 358c1,5 2,10 3,16l-498 -372c5,0 11,-1 16,-1z"/>
  <path class="fil95" d="M444 31l498 372c1,5 2,10 3,15l-516 -385c5,-1 10,-1 15,-2z"/>
  <path class="fil96" d="M429 32l516 385c1,5 2,10 2,15l-533 -398c5,-1 10,-1 15,-2z"/>
  <path class="fil97" d="M414 34l533 398c1,5 1,9 2,14l-548 -410c5,-1 9,-2 14,-2z"/>
  <path class="fil98" d="M400 37l548 410c0,5 1,9 1,14l-563 -421c5,-1 9,-2 14,-3z"/>
  <path class="fil99" d="M387 40l563 421c0,5 1,9 1,14l-577 -431c4,-1 9,-2 13,-3z"/>
  <path class="fil100" d="M373 43l577 431c0,4 0,9 0,13l-590 -441c4,-1 8,-2 13,-3z"/>
  <path class="fil101" d="M361 46l590 441c0,4 0,9 0,13l-602 -450c4,-1 8,-3 12,-4z"/>
  <path class="fil102" d="M348 50l602 450c0,4 0,8 0,13l-614 -459c4,-1 8,-3 12,-4z"/>
  <path class="fil103" d="M336 54l614 459c0,1 0,3 0,4 0,3 0,6 -1,8l-625 -467c4,-1 8,-3 12,-4z"/>
  <path class="fil104" d="M324 58l625 467c0,4 -1,8 -1,12l-636 -475c4,-2 8,-3 11,-4z"/>
  <path class="fil105" d="M313 63l636 475c0,4 -1,8 -1,12l-645 -482c4,-2 7,-3 11,-5z"/>
  <path class="fil106" d="M302 68l645 482c0,4 -1,8 -2,12l-655 -489c4,-2 7,-3 11,-5z"/>
  <path class="fil107" d="M291 72l655 489c-1,4 -1,8 -2,12l-663 -496c3,-2 7,-3 11,-5z"/>
  <path class="fil108" d="M280 78l663 496c-1,4 -1,8 -2,11l-671 -502c3,-2 7,-4 10,-5z"/>
  <path class="fil109" d="M270 83l671 502c-1,4 -2,7 -2,11l-679 -507c3,-2 7,-4 10,-6z"/>
  <path class="fil110" d="M260 88l679 507c-1,4 -2,7 -3,11l-686 -513c3,-2 7,-4 10,-6z"/>
  <path class="fil111" d="M250 94l686 513c-1,4 -2,7 -3,11l-693 -518c3,-2 6,-4 10,-6z"/>
  <path class="fil112" d="M241 100l693 518c-1,4 -2,7 -3,11l-699 -522c3,-2 6,-4 9,-6z"/>
  <path class="fil113" d="M231 106l699 522c-1,4 -2,7 -3,10l-705 -527c3,-2 6,-4 9,-6z"/>
  <path class="fil114" d="M222 112l705 527c-1,3 -2,7 -4,10l-710 -531c3,-2 6,-4 9,-6z"/>
  <path class="fil115" d="M213 119l710 531c-1,3 -2,7 -4,10l-715 -534c3,-2 6,-4 9,-7z"/>
  <path class="fil116" d="M205 125l715 534c-1,3 -3,7 -4,10l-719 -538c3,-2 6,-4 8,-7z"/>
  <path class="fil117" d="M196 132l719 538c-1,3 -3,7 -4,10l-723 -541c3,-2 5,-5 8,-7z"/>
  <path class="fil118" d="M188 139l723 541c-1,3 -3,6 -4,10l-727 -543c3,-2 5,-5 8,-7z"/>
  <path class="fil119" d="M180 146l727 543c-2,3 -3,6 -5,10l-730 -546c3,-2 5,-5 8,-7z"/>
  <path class="fil120" d="M172 153l730 546c-2,3 -3,6 -5,9l-733 -548c3,-2 5,-5 8,-7z"/>
  <path class="fil121" d="M164 160l733 548c-2,3 -3,6 -5,9l-735 -550c2,-3 5,-5 7,-7z"/>
  <polygon class="fil121" points="157,167 892,717 "/>
  <path class="fil121" d="M157 167l735 550c-2,3 -3,6 -5,9l-738 -551c2,-3 5,-5 7,-8z"/>
  <path class="fil121" d="M150 175l738 551c-2,3 -4,6 -5,9l-739 -552c2,-3 5,-5 7,-8z"/>
  <path class="fil121" d="M143 183l739 552c-2,3 -4,6 -6,9l-741 -553c2,-3 5,-5 7,-8z"/>
  <path class="fil121" d="M136 191l741 553c-2,3 -4,6 -6,9l-742 -554c2,-3 4,-5 7,-8z"/>
  <path class="fil121" d="M129 199l742 554c-2,3 -4,6 -6,9l-742 -555c2,-3 4,-5 7,-8z"/>
  <path class="fil121" d="M122 207l742 555c-2,3 -4,6 -6,8l-742 -555c2,-3 4,-6 6,-8z"/>
  <path class="fil121" d="M116 215l742 555c-2,3 -4,6 -6,8l-742 -555c2,-3 4,-6 6,-8z"/>
  <path class="fil121" d="M110 223l742 555c-2,3 -4,5 -7,8l-742 -554c2,-3 4,-6 6,-9z"/>
  <path class="fil121" d="M104 232l742 554c-2,3 -4,5 -7,8l-741 -553c2,-3 4,-6 6,-9z"/>
  <path class="fil121" d="M98 241l741 553c-2,3 -5,5 -7,8l-739 -552c2,-3 4,-6 6,-9z"/>
  <path class="fil121" d="M93 249l739 552c-2,3 -5,5 -7,8l-738 -551c2,-3 4,-6 5,-9z"/>
  <path class="fil121" d="M87 258l738 551c-2,3 -5,5 -7,8l-736 -550c2,-3 3,-6 5,-9z"/>
  <path class="fil121" d="M82 268l736 550c-2,3 -5,5 -7,7l-733 -548c2,-3 3,-6 5,-9z"/>
  <path class="fil121" d="M77 277l733 548c-3,2 -5,5 -8,7l-730 -546c2,-3 3,-6 5,-9z"/>
  <path class="fil121" d="M72 286l730 546c-3,2 -5,5 -8,7l-727 -543c2,-3 3,-6 5,-10z"/>
  <path class="fil121" d="M67 296l727 543c-3,2 -5,5 -8,7l-723 -541c1,-3 3,-6 4,-10z"/>
  <path class="fil121" d="M63 305l723 541c-3,2 -5,5 -8,7l-719 -538c1,-3 3,-7 4,-10z"/>
  <path class="fil121" d="M59 315l719 538c-3,2 -6,4 -8,7l-715 -534c1,-3 3,-7 4,-10z"/>
  <path class="fil121" d="M55 325l715 534c-3,2 -6,4 -9,7l-710 -531c1,-3 3,-7 4,-10z"/>
  <path class="fil121" d="M51 335l710 531c-3,2 -6,4 -9,6l-705 -527c1,-3 2,-7 4,-10z"/>
  <path class="fil121" d="M47 346l705 527c-3,2 -6,4 -9,6l-699 -522c1,-4 2,-7 3,-10z"/>
  <path class="fil121" d="M44 356l699 522c-3,2 -6,4 -9,6l-693 -518c1,-4 2,-7 3,-11z"/>
  <path class="fil121" d="M41 367l693 518c-3,2 -6,4 -10,6l-686 -513c1,-4 2,-7 3,-11z"/>
  <path class="fil121" d="M38 378l686 513c-3,2 -7,4 -10,6l-679 -507c1,-4 2,-7 3,-11z"/>
  <path class="fil121" d="M35 389l679 507c-3,2 -7,4 -10,6l-671 -502c1,-4 2,-7 2,-11z"/>
  <path class="fil121" d="M33 400l671 502c-3,2 -7,4 -10,5l-663 -496c1,-4 1,-8 2,-11z"/>
  <path class="fil121" d="M31 411l663 496c-3,2 -7,3 -11,5l-655 -489c1,-4 1,-8 2,-12z"/>
  <path class="fil121" d="M29 423l655 489c-4,2 -7,3 -11,5l-645 -482c0,-4 1,-8 2,-12z"/>
  <polygon class="fil121" points="27,435 672,917 "/>
  <path class="fil121" d="M27 435l645 482c-4,2 -7,3 -11,5l-636 -475c0,-4 1,-8 1,-12z"/>
  <path class="fil122" d="M26 447l636 475c-4,2 -8,3 -11,4l-625 -467c0,-4 1,-8 1,-12z"/>
  <path class="fil120" d="M25 459l625 467c-4,1 -8,3 -12,4l-614 -459c0,-1 0,-3 0,-4 0,-3 0,-6 1,-8z"/>
  <path class="fil123" d="M24 472l614 459c-4,1 -8,3 -12,4l-602 -450c0,-4 0,-8 0,-13z"/>
  <path class="fil124" d="M24 484l602 450c-4,1 -8,3 -12,4l-590 -441c0,-4 0,-9 0,-13z"/>
  <path class="fil125" d="M24 497l590 441c-4,1 -8,2 -13,3l-577 -431c0,-4 0,-9 0,-13z"/>
  <path class="fil126" d="M24 511l577 431c-4,1 -9,2 -13,3l-563 -421c0,-5 -1,-9 -1,-14z"/>
  <path class="fil127" d="M25 524l563 421c-5,1 -9,2 -14,3l-548 -410c0,-5 -1,-9 -1,-14z"/>
  <path class="fil128" d="M26 538l548 410c-5,1 -9,2 -14,2l-533 -398c-1,-5 -1,-9 -2,-14z"/>
  <path class="fil129" d="M27 552l533 398c-5,1 -10,1 -15,2l-516 -385c-1,-5 -2,-10 -2,-15z"/>
  <path class="fil130" d="M30 567l516 385c-5,1 -10,1 -15,2l-498 -372c-1,-5 -2,-10 -3,-15z"/>
  <path class="fil131" d="M32 582l498 372c-5,0 -11,1 -16,1l-479 -358c-1,-5 -2,-10 -3,-16z"/>
  <path class="fil132" d="M36 597l479 358c-5,0 -11,1 -16,1l-458 -342c-1,-5 -3,-11 -4,-16z"/>
  <path class="fil133" d="M40 613l458 342c-6,0 -12,0 -17,0l-436 -326c-2,-6 -3,-11 -5,-17z"/>
  <path class="fil134" d="M45 630l436 326c-6,0 -12,0 -18,-1l-412 -308c-2,-6 -4,-12 -6,-17z"/>
  <path class="fil135" d="M50 647l412 308 0 0c-6,0 -13,-1 -19,-1l-386 -288c-2,-6 -5,-12 -7,-18z"/>
  <path class="fil136" d="M57 666l386 288c-7,-1 -14,-1 -21,-2l-357 -267c-3,-6 -6,-13 -8,-19z"/>
  <path class="fil137" d="M66 685l357 267c-8,-1 -15,-2 -22,-4l-324 -242c-4,-7 -7,-14 -10,-21z"/>
  <path class="fil138" d="M76 705l324 242c-8,-2 -17,-3 -25,-5l-287 -215c-4,-7 -8,-15 -12,-22z"/>
  <path class="fil139" d="M88 728l287 215c-9,-2 -19,-5 -28,-8l-243 -182c-6,-8 -11,-16 -16,-25z"/>
  <path class="fil140" d="M104 752l243 182c-11,-4 -23,-8 -34,-12l-188 -141c-8,-9 -15,-19 -21,-29z"/>
  <path class="fil140" d="M125 781l188 141c-16,-7 -32,-14 -48,-23l-105 -79c-13,-12 -24,-26 -35,-40z"/>
  <path class="fil141" d="M161 821l105 79c-39,-21 -74,-48 -105,-79z"/>
  <path class="fil85" d="M814 164l-105 -79c39,21 74,48 105,79z"/>
  <path class="fil86" d="M708 85l105 79c13,12 24,26 35,40l-188 -141c16,7 32,14 48,23z"/>
  <path class="fil142" d="M661 62l188 141c8,9 15,19 21,29l-243 -182c11,4 23,8 34,12z"/>
  <path class="fil143" d="M627 50l243 182c6,8 11,16 16,25l-287 -215c9,2 19,5 28,8z"/>
  <path class="fil144" d="M599 42l287 215c4,7 8,15 12,22l-324 -242c8,2 17,3 25,5z"/>
  <path class="fil91" d="M574 37l324 242c4,7 7,14 10,21l-357 -266c8,1 15,2 22,4z"/>
  <path class="fil92" d="M552 33l357 266c3,6 6,13 8,19l-386 -288c7,1 14,1 21,2z"/>
  <path class="fil93" d="M531 31l386 288c2,6 5,12 7,18l-412 -308 0 0c6,0 13,1 19,1z"/>
  <path class="fil94" d="M512 29l412 308c2,6 4,12 6,17l-436 -326c6,0 12,0 18,1z"/>
  <path class="fil145" d="M494 29l436 326c2,6 3,11 5,17l-458 -342c6,0 12,0 17,0z"/>
  <path class="fil146" d="M476 29l458 342c1,5 3,11 4,16l-479 -358c5,0 11,-1 16,-1z"/>
  <path class="fil147" d="M460 30l479 358c1,5 2,10 3,16l-498 -372c5,0 11,-1 16,-1z"/>
  <path class="fil99" d="M444 31l498 372c1,5 2,10 3,15l-516 -385c5,-1 10,-1 15,-2z"/>
  <path class="fil100" d="M429 32l516 385c1,5 2,10 2,15l-533 -398c5,-1 10,-1 15,-2z"/>
  <path class="fil101" d="M414 34l533 398c1,5 1,9 2,14l-548 -410c5,-1 9,-2 14,-2z"/>
  <path class="fil102" d="M400 37l548 410c0,5 1,9 1,14l-563 -421c5,-1 9,-2 14,-3z"/>
  <path class="fil148" d="M387 40l563 421c0,5 1,9 1,14l-577 -431c4,-1 9,-2 13,-3z"/>
  <path class="fil149" d="M373 43l577 431c0,4 0,9 0,13l-590 -441c4,-1 8,-2 13,-3z"/>
  <path class="fil150" d="M361 46l590 441c0,4 0,9 0,13l-602 -450c4,-1 8,-3 12,-4z"/>
  <path class="fil107" d="M348 50l602 450c0,4 0,8 0,13l-614 -459c4,-1 8,-3 12,-4z"/>
  <path class="fil151" d="M336 54l614 459c0,1 0,3 0,4 0,3 0,6 -1,8l-625 -467c4,-1 8,-3 12,-4z"/>
  <path class="fil152" d="M324 58l625 467c0,4 -1,8 -1,12l-636 -475c4,-2 8,-3 11,-4z"/>
  <path class="fil153" d="M313 63l636 475c0,4 -1,8 -1,12l-645 -482c4,-2 7,-3 11,-5z"/>
  <path class="fil111" d="M302 68l645 482c0,4 -1,8 -2,12l-655 -489c4,-2 7,-3 11,-5z"/>
  <path class="fil112" d="M291 72l655 489c-1,4 -1,8 -2,12l-663 -496c3,-2 7,-3 11,-5z"/>
  <path class="fil113" d="M280 78l663 496c-1,4 -1,8 -2,11l-671 -502c3,-2 7,-4 10,-5z"/>
  <path class="fil114" d="M270 83l671 502c-1,4 -2,7 -2,11l-679 -507c3,-2 7,-4 10,-6z"/>
  <path class="fil154" d="M260 88l679 507c-1,4 -2,7 -3,11l-686 -513c3,-2 7,-4 10,-6z"/>
  <path class="fil155" d="M250 94l686 513c-1,4 -2,7 -3,11l-693 -518c3,-2 6,-4 10,-6z"/>
  <path class="fil156" d="M241 100l693 518c-1,4 -2,7 -3,11l-699 -522c3,-2 6,-4 9,-6z"/>
  <path class="fil119" d="M231 106l699 522c-1,4 -2,7 -3,10l-705 -527c3,-2 6,-4 9,-6z"/>
  <path class="fil120" d="M222 112l705 527c-1,3 -2,7 -4,10l-710 -531c3,-2 6,-4 9,-6z"/>
  <path class="fil121" d="M213 119l710 531c-1,3 -2,7 -4,10l-715 -534c3,-2 6,-4 9,-7z"/>
  <polygon class="fil121" points="205,125 920,659 "/>
  <path class="fil121" d="M205 125l715 534c-1,3 -3,7 -4,10l-719 -538c3,-2 6,-4 8,-7z"/>
  <path class="fil121" d="M196 132l719 538c-1,3 -3,7 -4,10l-723 -541c3,-2 5,-5 8,-7z"/>
  <path class="fil121" d="M188 139l723 541c-1,3 -3,6 -4,10l-727 -543c3,-2 5,-5 8,-7z"/>
  <path class="fil121" d="M180 146l727 543c-2,3 -3,6 -5,10l-730 -546c3,-2 5,-5 8,-7z"/>
  <path class="fil121" d="M172 153l730 546c-2,3 -3,6 -5,9l-733 -548c3,-2 5,-5 8,-7z"/>
  <path class="fil121" d="M164 160l733 548c-2,3 -3,6 -5,9l-735 -550c2,-3 5,-5 7,-7z"/>
  <path class="fil121" d="M157 167l735 550c-2,3 -3,6 -5,9l-738 -551c2,-3 5,-5 7,-8z"/>
  <path class="fil121" d="M150 175l738 551c-2,3 -4,6 -5,9l-739 -552c2,-3 5,-5 7,-8z"/>
  <path class="fil121" d="M143 183l739 552c-2,3 -4,6 -6,9l-741 -553c2,-3 5,-5 7,-8z"/>
  <path class="fil121" d="M136 191l741 553c-2,3 -4,6 -6,9l-742 -554c2,-3 4,-5 7,-8z"/>
  <path class="fil121" d="M129 199l742 554c-2,3 -4,6 -6,9l-742 -555c2,-3 4,-5 7,-8z"/>
  <path class="fil121" d="M122 207l742 555c-2,3 -4,6 -6,8l-742 -555c2,-3 4,-6 6,-8z"/>
  <path class="fil121" d="M116 215l742 555c-2,3 -4,6 -6,8l-742 -555c2,-3 4,-6 6,-8z"/>
  <path class="fil121" d="M110 223l742 555c-2,3 -4,5 -7,8l-742 -554c2,-3 4,-6 6,-9z"/>
  <path class="fil121" d="M104 232l742 554c-2,3 -4,5 -7,8l-741 -553c2,-3 4,-6 6,-9z"/>
  <path class="fil121" d="M98 241l741 553c-2,3 -5,5 -7,8l-739 -552c2,-3 4,-6 6,-9z"/>
  <path class="fil121" d="M93 249l739 552c-2,3 -5,5 -7,8l-738 -551c2,-3 4,-6 5,-9z"/>
  <path class="fil121" d="M87 258l738 551c-2,3 -5,5 -7,8l-736 -550c2,-3 3,-6 5,-9z"/>
  <path class="fil121" d="M82 268l736 550c-2,3 -5,5 -7,7l-733 -548c2,-3 3,-6 5,-9z"/>
  <path class="fil121" d="M77 277l733 548c-3,2 -5,5 -8,7l-730 -546c2,-3 3,-6 5,-9z"/>
  <path class="fil121" d="M72 286l730 546c-3,2 -5,5 -8,7l-727 -543c2,-3 3,-6 5,-10z"/>
  <path class="fil121" d="M67 296l727 543c-3,2 -5,5 -8,7l-723 -541c1,-3 3,-6 4,-10z"/>
  <path class="fil121" d="M63 305l723 541c-3,2 -5,5 -8,7l-719 -538c1,-3 3,-7 4,-10z"/>
  <path class="fil121" d="M59 315l719 538c-3,2 -6,4 -8,7l-715 -534c1,-3 3,-7 4,-10z"/>
  <path class="fil121" d="M55 325l715 534c-3,2 -6,4 -9,7l-710 -531c1,-3 3,-7 4,-10z"/>
  <path class="fil121" d="M51 335l710 531c-3,2 -6,4 -9,6l-705 -527c1,-3 2,-7 4,-10z"/>
  <path class="fil121" d="M47 346l705 527c-3,2 -6,4 -9,6l-699 -522c1,-4 2,-7 3,-10z"/>
  <path class="fil121" d="M44 356l699 522c-3,2 -6,4 -9,6l-693 -518c1,-4 2,-7 3,-11z"/>
  <polygon class="fil121" points="41,367 734,885 "/>
  <path class="fil121" d="M41 367l693 518c-3,2 -6,4 -10,6l-686 -513c1,-4 2,-7 3,-11z"/>
  <path class="fil122" d="M38 378l686 513c-3,2 -7,4 -10,6l-679 -507c1,-4 2,-7 3,-11z"/>
  <path class="fil120" d="M35 389l679 507c-3,2 -7,4 -10,6l-671 -502c1,-4 2,-7 2,-11z"/>
  <path class="fil123" d="M33 400l671 502c-3,2 -7,4 -10,5l-663 -496c1,-4 1,-8 2,-11z"/>
  <path class="fil123" d="M31 411l663 496c-3,2 -7,3 -11,5l-655 -489c1,-4 1,-8 2,-12z"/>
  <path class="fil124" d="M29 423l655 489c-4,2 -7,3 -11,5l-645 -482c0,-4 1,-8 2,-12z"/>
  <path class="fil125" d="M27 435l645 482c-4,2 -7,3 -11,5l-636 -475c0,-4 1,-8 1,-12z"/>
  <path class="fil126" d="M26 447l636 475c-4,2 -8,3 -11,4l-625 -467c0,-4 1,-8 1,-12z"/>
  <path class="fil127" d="M25 459l625 467c-4,1 -8,3 -12,4l-614 -459c0,-1 0,-3 0,-4 0,-3 0,-6 1,-8z"/>
  <path class="fil128" d="M24 472l614 459c-4,1 -8,3 -12,4l-602 -450c0,-4 0,-8 0,-13z"/>
  <path class="fil129" d="M24 484l602 450c-4,1 -8,3 -12,4l-590 -441c0,-4 0,-9 0,-13z"/>
  <path class="fil129" d="M24 497l590 441c-4,1 -8,2 -13,3l-577 -431c0,-4 0,-9 0,-13z"/>
  <path class="fil130" d="M24 511l577 431c-4,1 -9,2 -13,3l-563 -421c0,-5 -1,-9 -1,-14z"/>
  <path class="fil131" d="M25 524l563 421c-5,1 -9,2 -14,3l-548 -410c0,-5 -1,-9 -1,-14z"/>
  <path class="fil132" d="M26 538l548 410c-5,1 -9,2 -14,2l-533 -398c-1,-5 -1,-9 -2,-14z"/>
  <path class="fil133" d="M27 552l533 398c-5,1 -10,1 -15,2l-516 -385c-1,-5 -2,-10 -2,-15z"/>
  <path class="fil134" d="M30 567l516 385c-5,1 -10,1 -15,2l-498 -372c-1,-5 -2,-10 -3,-15z"/>
  <path class="fil134" d="M32 582l498 372c-5,0 -11,1 -16,1l-479 -358c-1,-5 -2,-10 -3,-16z"/>
  <path class="fil135" d="M36 597l479 358c-5,0 -11,1 -16,1l-458 -342c-1,-5 -3,-11 -4,-16z"/>
  <path class="fil136" d="M40 613l458 342c-6,0 -12,0 -17,0l-436 -326c-2,-6 -3,-11 -5,-17z"/>
  <path class="fil137" d="M45 630l436 326c-6,0 -12,0 -18,-1l-412 -308c-2,-6 -4,-12 -6,-17z"/>
  <path class="fil138" d="M50 647l412 308 0 0c-6,0 -13,-1 -19,-1l-386 -288c-2,-6 -5,-12 -7,-18z"/>
  <path class="fil139" d="M57 666l386 288c-7,-1 -14,-1 -21,-2l-357 -267c-3,-6 -6,-13 -8,-19z"/>
  <path class="fil140" d="M66 685l357 267c-8,-1 -15,-2 -22,-4l-324 -242c-4,-7 -7,-14 -10,-21z"/>
  <path class="fil140" d="M76 705l324 242c-8,-2 -17,-3 -25,-5l-287 -215c-4,-7 -8,-15 -12,-22z"/>
  <path class="fil141" d="M88 728l287 215c-9,-2 -19,-5 -28,-8l-243 -182c-6,-8 -11,-16 -16,-25z"/>
  <path class="fil157" d="M104 752l243 182c-11,-4 -23,-8 -34,-12l-188 -141c-8,-9 -15,-19 -21,-29z"/>
  <path class="fil158" d="M125 781l188 141c-16,-7 -32,-14 -48,-23l-105 -79c-13,-12 -24,-26 -35,-40z"/>
  <path class="fil159" d="M161 821l105 79c-39,-21 -74,-48 -105,-79z"/>
  <path class="fil160" d="M2887 727l0 -58c35,13 74,19 118,19 53,0 80,-18 80,-53 0,-26 -16,-39 -49,-39l-59 0c-71,0 -106,-32 -106,-97 0,-71 50,-107 151,-107 39,0 75,6 110,17l0 58c-35,-13 -71,-19 -110,-19 -58,0 -87,17 -87,51 0,26 14,39 42,39l59 0c75,0 113,32 113,97 0,73 -48,109 -144,109 -44,0 -83,-6 -118,-17z"/>
  <path class="fil160" d="M2533 606l0 -210 64 0 0 210c0,55 28,83 85,83 57,0 85,-28 85,-83l0 -210 64 0 0 210c0,92 -50,138 -149,138 -99,0 -149,-46 -149,-138z"/>
  <polygon class="fil160" points="2234,396 2234,451 2334,451 2334,742 2398,742 2398,451 2497,451 2497,396 "/>
  <polygon class="fil160" points="1962,695 2090,396 2159,396 2309,742 2240,742 2196,648 2085,648 2107,592 2179,592 2123,462 2009,742 1996,742 "/>
  <path class="fil160" d="M1706 741l0 -346 157 0c71,0 106,31 106,93 0,42 -28,76 -83,104l110 150 -83 0 -105 -151 0 -29c63,-10 94,-34 94,-71 0,-26 -14,-38 -43,-38l-88 0 0 289 -65 0z"/>
  <polygon class="fil160" points="1408,396 1408,451 1507,451 1507,742 1571,742 1571,451 1670,451 1670,396 "/>
  <path class="fil160" d="M1093 722l0 -72c43,16 91,24 145,24 66,0 98,-22 98,-66 0,-32 -20,-48 -60,-48l-73 0c-87,0 -131,-40 -131,-120 0,-88 62,-132 187,-132 48,0 93,7 136,21l0 72c-43,-16 -88,-24 -136,-24 -72,0 -108,21 -108,63 0,32 17,48 52,48l73 0c93,0 140,40 140,120 0,90 -59,135 -178,135 -54,0 -102,-7 -145,-21z"/>
  <path class="fil161" d="M3531 543l-79 0 0 124c-18,5 -35,7 -49,7 -97,0 -145,-51 -145,-154 0,-95 51,-142 154,-142 43,0 83,8 120,24l0 -72c-37,-14 -79,-21 -126,-21 -154,0 -230,70 -230,211 0,148 75,223 226,223 52,0 95,-8 129,-23l0 -178z"/>
  <path class="fil160" d="M2044 932c-11,5 -24,7 -37,7 -32,0 -48,-16 -48,-48 0,-29 16,-44 48,-44 13,0 26,2 37,7l0 -22c-11,-4 -24,-6 -39,-6 -48,0 -71,22 -71,65 0,46 24,69 71,69 15,0 28,-2 39,-6l0 -22zm90 -39c0,31 14,46 41,46 27,0 40,-15 40,-46 0,-30 -13,-46 -40,-46 -27,0 -41,15 -41,46zm-26 1c0,-45 22,-67 67,-67 44,0 66,22 66,67 0,45 -22,67 -66,67 -42,0 -65,-22 -67,-67zm201 66l0 -133 25 0 74 95 0 -95 24 0 0 133 -25 0 -74 -97 0 97 -24 0zm197 -6l0 -22c13,5 28,7 45,7 20,0 31,-7 31,-20 0,-10 -6,-15 -19,-15l-23 0c-27,0 -41,-12 -41,-37 0,-27 19,-41 58,-41 15,0 29,2 42,6l0 22c-13,-5 -27,-7 -42,-7 -22,0 -33,6 -33,19 0,10 5,15 16,15l23 0c29,0 43,12 43,37 0,28 -18,42 -55,42 -17,0 -32,-2 -45,-6zm165 -47l0 -81 25 0 0 81c0,21 11,32 32,32 22,0 33,-11 33,-32l0 -81 25 0 0 81c0,35 -19,53 -57,53 -38,0 -57,-18 -57,-53zm188 -81l0 133 87 0 0 -21 -62 0 0 -111 -25 0zm114 0l0 21 38 0 0 111 25 0 0 -111 38 0 0 -21 -101 0zm160 0l0 133 25 0 0 -133 -25 0zm98 133l0 -133 25 0 74 95 0 -95 24 0 0 133 -25 0 -74 -97 0 97 -24 0zm301 -61l-25 0 0 39c-6,1 -11,2 -15,2 -30,0 -45,-16 -45,-48 0,-29 16,-44 48,-44 13,0 26,2 37,7l0 -22c-11,-4 -24,-6 -39,-6 -48,0 -71,22 -71,65 0,46 23,69 70,69 16,0 29,-2 40,-7l0 -55z"/>
  <path class="fil162" d="M858 215l-11 -10 3 -1c3,3 5,7 8,10zm-130 -114l-16 -14c7,4 14,8 21,13l-5 1z"/>
  <path class="fil163" d="M712 87l16 14c-4,1 -8,2 -13,3l-40 -35c13,6 25,12 37,19zm135 118l11 10c8,11 16,23 23,34l-47 -41c4,-1 9,-2 13,-3z"/>
  <path class="fil164" d="M675 68l40 35c-4,1 -8,2 -13,3l-57 -50c10,4 20,8 29,12zm159 139l47 41c6,9 11,18 16,28l-76 -66c4,-1 8,-2 13,-3z"/>
  <path class="fil165" d="M646 56l57 50c-4,1 -8,2 -12,3l-70 -61c9,3 17,5 25,8zm176 154l76 66c4,8 8,16 12,24l-100 -87c4,-1 8,-2 13,-3z"/>
  <path class="fil166" d="M620 48l70 61 -8 2 -5 1 -80 -70c8,2 15,4 23,6zm189 165l100 87c3,7 6,15 9,22l-122 -107c4,-1 8,-2 12,-3z"/>
  <path class="fil167" d="M597 42l80 70c-4,1 -8,2 -12,3l-89 -78c7,1 14,3 21,5zm199 175l122 107c3,7 5,14 8,20l-142 -124c3,-1 7,-2 10,-3l2 0z"/>
  <path class="fil168" d="M576 37l89 78c-4,1 -8,2 -12,3l-97 -85c7,1 13,2 20,3zm208 182l142 124c1,3 2,5 3,8l-7 2 -149 -130c4,-1 8,-2 12,-3z"/>
  <path class="fil169" d="M556 34l97 85c-4,1 -8,2 -12,3l-103 -90c6,1 12,1 19,2zm216 189l149 130c-4,1 -8,2 -12,3l-149 -131c4,-1 8,-2 12,-3z"/>
  <path class="fil170" d="M538 31l103 90c-4,1 -8,2 -12,3l-109 -95c6,0 12,1 18,2zm222 194l149 131c-4,1 -8,2 -12,3l-149 -131c4,-1 8,-2 12,-3z"/>
  <path class="fil171" d="M520 30l109 95c-4,1 -8,2 -12,3l-113 -99c3,0 6,0 8,0 3,0 6,0 8,1zm228 199l149 131c-4,1 -8,2 -12,3l-150 -131c4,-1 8,-2 12,-3z"/>
  <path class="fil172" d="M503 29l113 99c-4,1 -8,2 -12,3l-118 -103c5,0 11,0 16,0zm232 203l150 131c-4,1 -8,2 -12,4l-150 -131c4,-1 8,-2 12,-3z"/>
  <path class="fil144" d="M487 28l118 103c-4,1 -8,2 -12,3l-121 -106c5,0 10,0 15,0zm237 207l150 131c-4,1 -8,2 -12,4l-150 -131c4,-1 8,-2 12,-3z"/>
  <path class="fil173" d="M472 29l121 106c-4,1 -8,2 -12,4l-124 -109c5,0 10,-1 15,-1zm240 210l150 131c-4,1 -8,2 -12,4l-150 -131c4,-1 8,-2 12,-4z"/>
  <path class="fil174" d="M457 29l124 109c-4,1 -8,2 -12,4l-127 -111c5,0 10,-1 14,-1zm243 213l150 131c-4,1 -8,2 -12,4l-150 -131c4,-1 8,-2 12,-4z"/>
  <path class="fil175" d="M442 31l127 111c-4,1 -8,2 -12,4l-130 -113c5,-1 9,-1 14,-2zm246 215l150 131c-4,1 -8,3 -11,4l-150 -132c4,-1 8,-2 12,-4zm262 243l-4 -4 4 -1 0 5z"/>
  <path class="fil176" d="M428 32l130 113c-4,1 -8,2 -12,4l-132 -115c5,-1 9,-1 14,-2zm249 218l150 132c-4,1 -8,3 -11,4l-150 -132c4,-1 8,-2 12,-4zm269 236l4 4c0,5 0,9 0,14l-16 -14c4,-1 8,-3 11,-4z"/>
  <path class="fil177" d="M415 34l132 115c-4,1 -8,3 -11,4l-133 -117c4,-1 9,-2 13,-2zm251 219l150 132c-4,1 -8,3 -11,4l-151 -132c4,-1 8,-3 11,-4zm269 236l16 14c0,4 0,9 0,13l-26 -23c4,-1 8,-3 11,-4z"/>
  <path class="fil178" d="M401 36l133 117c-4,1 -8,3 -11,4l-135 -118c4,-1 9,-2 13,-3zm252 221l151 132c-4,1 -7,3 -11,4l-151 -132c4,-1 8,-3 11,-4zm270 236l26 23 0 1c0,4 -1,8 -1,12l-37 -32c4,-1 7,-3 11,-4z"/>
  <path class="fil179" d="M389 39l135 118c-4,1 -8,3 -11,4l-136 -119c4,-1 8,-2 12,-3zm254 222l151 132c-4,1 -7,3 -11,4l-151 -132c4,-1 8,-3 11,-4zm270 236l37 32c0,4 -1,9 -1,13l-47 -41c4,-1 7,-3 11,-4z"/>
  <path class="fil180" d="M376 42l136 119c-4,1 -7,3 -11,4l-137 -120c4,-1 8,-2 12,-3zm255 223l151 132c-4,1 -7,3 -11,4l-151 -132c4,-1 7,-3 11,-4zm270 236l47 41c0,4 -1,8 -2,12l-56 -49c4,-1 7,-3 11,-4z"/>
  <path class="fil181" d="M364 45l137 120c-4,1 -7,3 -11,4l-138 -121c4,-1 8,-2 12,-3zm256 224l151 132c-4,1 -7,3 -11,4l-151 -132c4,-1 7,-3 11,-4zm270 236l56 49c-1,4 -1,8 -2,12l-65 -57c4,-1 7,-3 11,-4z"/>
  <path class="fil182" d="M352 48l138 121c-4,1 -7,3 -11,4l-138 -121c4,-1 8,-3 12,-4zm257 225l151 132c-4,1 -7,3 -11,4l-152 -133c4,-1 7,-3 11,-4zm270 236l65 57c-1,4 -1,8 -2,12l-74 -65c4,-1 7,-3 11,-4z"/>
  <path class="fil182" d="M341 52l138 121c-5,2 -10,4 -14,6l-139 -121c5,-2 10,-4 15,-5zm257 225l152 133c-5,2 -9,4 -14,6l-152 -133c5,-2 9,-4 14,-6zm270 237l74 65c-1,5 -2,10 -3,15l-85 -74c5,-2 9,-4 14,-6z"/>
  <path class="fil182" d="M341 52l138 121c-4,1 -7,3 -11,4l-139 -121c4,-1 7,-3 11,-4zm257 225l152 133c-4,1 -7,3 -11,4l-152 -133c4,-1 7,-3 11,-4zm270 237l74 65c-1,4 -2,8 -2,12l-83 -72c4,-1 7,-3 11,-4z"/>
  <path class="fil183" d="M329 56l139 121c-4,1 -7,3 -11,4l-139 -122c4,-1 7,-3 11,-4zm258 225l152 133c-4,1 -7,3 -11,4l-152 -133c4,-1 7,-3 11,-4zm270 237l83 72c-1,4 -2,8 -3,11l-91 -79c4,-1 7,-3 11,-4z"/>
  <path class="fil184" d="M318 60l139 122c-4,1 -7,3 -11,4l-139 -122c4,-2 7,-3 11,-4zm258 226l152 133c-4,2 -7,3 -11,5l-152 -133c4,-1 7,-3 11,-4zm271 237l91 79c-1,4 -2,8 -3,11l-98 -86c4,-2 7,-3 11,-5z"/>
  <path class="fil185" d="M308 65l139 122c-4,1 -7,3 -11,4l-139 -121c3,-2 7,-3 11,-5zm258 226l152 133c-4,2 -7,3 -10,5l-152 -133c4,-2 7,-3 11,-4zm271 237l98 86c-1,4 -2,7 -3,11l-106 -92c3,-2 7,-3 11,-5z"/>
  <path class="fil186" d="M297 69l139 121c-4,2 -7,3 -11,5l-139 -121c3,-2 7,-3 10,-5zm258 225l152 133c-3,2 -7,3 -10,5l-153 -133c4,-2 7,-3 11,-5zm271 237l106 92c-1,4 -2,7 -3,11l-113 -99c3,-2 7,-3 10,-5z"/>
  <path class="fil187" d="M287 74l139 121c-4,2 -7,3 -10,5l-138 -121c3,-2 7,-3 10,-5zm257 225l153 133 -6 3 -4 2 -153 -134c3,-2 7,-3 11,-5zm271 237l113 99c-1,4 -2,7 -4,11l-119 -105c3,-2 7,-3 10,-5z"/>
  <path class="fil188" d="M277 79l138 121c-3,2 -7,3 -10,5l-138 -120c3,-2 7,-4 10,-5zm257 225l153 134c-3,2 -7,3 -10,5l-153 -134c3,-2 7,-3 10,-5zm271 237l119 105c-1,4 -3,7 -4,10l-126 -110c3,-2 7,-3 10,-5z"/>
  <path class="fil189" d="M267 84l138 120 -6 3 -5 2 -137 -120c3,-2 6,-4 10,-5zm256 224l153 134c-3,2 -7,3 -10,5l-153 -134c3,-2 7,-3 10,-5zm271 238l126 110c-1,3 -3,7 -4,10l-132 -116c3,-2 7,-3 10,-5z"/>
  <path class="fil190" d="M257 90l137 120c-3,2 -7,3 -10,5l-136 -119c3,-2 6,-4 9,-6zm256 224l153 134c-3,2 -7,3 -10,5l-154 -134c3,-2 7,-3 10,-5zm272 238l132 116c-1,3 -3,7 -4,10l-138 -121c3,-2 7,-3 10,-5z"/>
  <path class="fil191" d="M248 95l136 119c-3,2 -7,3 -10,5l-135 -119c3,-2 6,-4 9,-6zm255 223l154 134c-3,2 -7,3 -10,5l-154 -135c3,-2 7,-3 10,-5zm272 238l138 121c-1,3 -3,7 -4,10l-143 -126c3,-2 7,-3 10,-5z"/>
  <path class="fil192" d="M238 101l135 119c-3,2 -7,3 -10,5l-134 -118c3,-2 6,-4 9,-6zm254 222l154 135c-3,2 -7,3 -10,5l-154 -135c3,-2 7,-3 10,-5zm272 238l143 126c-2,3 -3,7 -5,10l-149 -130c3,-2 7,-3 10,-5z"/>
  <path class="fil193" d="M229 107l134 118c-3,2 -7,3 -10,5l-133 -117c3,-2 6,-4 9,-6zm253 221l154 135c-3,2 -7,4 -10,5l-154 -135c3,-2 7,-3 10,-5zm272 238l149 130c-2,3 -3,6 -5,10l-154 -134c3,-2 7,-3 10,-5z"/>
  <path class="fil194" d="M221 113l133 117c-3,2 -7,3 -10,5l-132 -116c3,-2 6,-4 9,-6zm252 220l154 135c-3,2 -6,4 -10,5l-155 -135c3,-2 7,-3 10,-5zm272 238l154 134c-2,3 -3,6 -5,9l-158 -139c3,-2 6,-4 10,-5z"/>
  <path class="fil195" d="M212 119l132 116c-3,2 -7,4 -10,5l-131 -115c3,-2 6,-4 8,-6zm250 219l155 135c-3,2 -6,4 -10,5l-155 -136c3,-2 7,-3 10,-5zm272 238l158 139c-2,3 -3,6 -5,9l-163 -142c3,-2 6,-4 10,-5z"/>
  <path class="fil196" d="M203 126l131 115c-3,2 -6,4 -10,5l-130 -113c3,-2 5,-4 8,-7zm249 218l155 136c-3,2 -6,4 -9,6l-155 -136c3,-2 6,-4 10,-5zm273 239l163 142c-2,3 -4,6 -5,9l-167 -146c3,-2 6,-4 10,-5z"/>
  <path class="fil197" d="M195 132l130 113c-3,2 -6,4 -10,5l-128 -112c3,-2 5,-5 8,-7zm247 217l155 136c-3,2 -6,4 -9,6l-156 -136c3,-2 6,-4 10,-5zm273 239l167 146c-2,3 -4,6 -6,9l-171 -149c3,-2 6,-4 9,-6z"/>
  <path class="fil198" d="M187 139l128 112c-3,2 -6,4 -9,6l-127 -111c3,-2 5,-5 8,-7zm246 215l156 136c-3,2 -6,4 -9,6l-156 -136c3,-2 6,-4 10,-5zm273 239l171 149c-2,3 -4,6 -6,9l-174 -153c3,-2 6,-4 9,-6z"/>
  <path class="fil199" d="M179 146l127 111c-3,2 -6,4 -9,6l-125 -109c3,-2 5,-5 8,-7zm244 214l156 136c-3,2 -6,4 -9,6l-156 -137c3,-2 6,-4 9,-6zm273 239l174 153c-2,3 -4,6 -6,9l-178 -155c3,-2 6,-4 9,-6z"/>
  <path class="fil200" d="M171 153l125 109c-3,2 -6,4 -9,6l-123 -108c2,-2 5,-5 8,-7zm243 212l156 137c-3,2 -6,4 -9,6l-157 -137c3,-2 6,-4 9,-6zm273 239l178 155c-2,3 -4,6 -6,8l-181 -158c3,-2 6,-4 9,-6z"/>
  <path class="fil201" d="M164 160l123 108c-3,2 -6,4 -9,6l-122 -107c2,-2 5,-5 7,-7zm241 211l157 137c-3,2 -6,4 -9,6l-157 -137c3,-2 6,-4 9,-6zm273 239l181 158c-2,3 -4,6 -6,8l-184 -161c3,-2 6,-4 9,-6z"/>
  <path class="fil202" d="M156 167l122 107c-3,2 -6,4 -9,6l-120 -105c2,-3 5,-5 7,-8zm239 209l157 137c-3,2 -6,4 -9,6l-157 -138c3,-2 6,-4 9,-6zm274 239l184 161c-2,3 -4,5 -7,8l-186 -163c3,-2 6,-4 9,-6z"/>
  <path class="fil203" d="M149 175l120 105c-3,2 -6,4 -9,6l-118 -103c2,-3 5,-5 7,-8zm237 207l157 138c-3,2 -6,4 -9,6l-158 -138c3,-2 6,-4 9,-6zm274 240l186 163c-2,3 -4,5 -7,8l-188 -165c3,-2 6,-4 9,-6z"/>
  <path class="fil204" d="M142 183l118 103c-3,2 -6,4 -9,6l-116 -102c2,-3 5,-5 7,-8zm235 205l158 138c-3,2 -6,4 -9,6l-158 -139c3,-2 6,-4 9,-6zm274 240l188 165c-2,3 -5,5 -7,8l-190 -167c3,-2 6,-4 9,-6z"/>
  <path class="fil205" d="M135 190l116 102c-3,2 -6,4 -9,6l-114 -100c2,-3 4,-5 7,-8zm233 204l158 139c-3,2 -6,4 -8,6l-159 -139c3,-2 6,-4 9,-6zm274 240l190 167c-2,3 -5,5 -7,8l-192 -168c3,-2 6,-4 9,-6l0 0z"/>
  <path class="fil206" d="M129 198l114 100c-3,2 -6,4 -9,6l-112 -98c2,-3 4,-5 7,-8zm230 202l159 139c-3,2 -6,4 -8,7l-159 -139 1 0c3,-2 5,-4 8,-6zm274 240l192 168c-2,3 -5,5 -7,8l-193 -169c3,-2 6,-4 9,-6z"/>
  <path class="fil207" d="M122 206l112 98c-3,2 -6,4 -8,6l-110 -96c2,-3 4,-6 6,-8zm228 200l159 139c-3,2 -5,4 -8,7l-160 -140c3,-2 6,-4 9,-6zm275 240l193 169c-2,2 -5,5 -7,7l-195 -170c3,-2 6,-4 8,-6z"/>
  <path class="fil208" d="M116 215l110 96c-3,2 -6,4 -8,7l-108 -95c2,-3 4,-6 6,-8zm226 198l160 140c-3,2 -5,4 -8,7l0 0 -161 -141c3,-2 6,-4 9,-6zm275 241l195 170c-2,2 -5,5 -8,7l-195 -171c3,-2 6,-4 8,-7z"/>
  <path class="fil209" d="M110 223l108 95c-3,2 -5,4 -8,7l-106 -93c2,-3 4,-6 6,-9zm223 195l161 141c-3,2 -5,5 -8,7l-161 -141c3,-2 6,-4 8,-6zm275 241l195 171c-3,2 -5,5 -8,7l-196 -171c3,-2 5,-4 8,-7z"/>
  <path class="fil210" d="M104 232l106 93c-2,2 -5,4 -7,6l-1 1 -104 -91c2,-3 4,-6 6,-9zm221 193l161 141c-3,2 -5,5 -8,7l-162 -142c3,-2 6,-4 8,-7zm275 241l196 171c-3,2 -5,5 -8,7l-196 -172c3,-2 5,-5 8,-7z"/>
  <path class="fil211" d="M98 240l104 91c-3,2 -5,5 -8,7l-102 -89c2,-3 4,-6 6,-9zm218 191l162 142c-3,2 -5,5 -7,7l-163 -143c3,-2 5,-4 8,-7zm276 241l196 172c-3,2 -5,5 -8,7l-196 -171c3,-2 5,-5 8,-7z"/>
  <path class="fil212" d="M92 249l102 89c-3,2 -5,5 -8,7l-100 -87c2,-3 4,-6 5,-9zm216 189l163 143c-2,3 -5,5 -7,8l-164 -143c3,-2 5,-5 8,-7zm276 241l196 171c-3,2 -5,4 -8,7l-195 -171c3,-2 5,-5 8,-7z"/>
  <path class="fil213" d="M87 258l100 87c-3,2 -5,5 -7,7l-98 -85c2,-3 3,-6 5,-9zm213 187l164 143c-2,3 -5,5 -7,8l-165 -144c3,-2 5,-5 8,-7zm276 242l195 171c-3,2 -6,4 -8,6l-194 -170c2,-2 5,-5 8,-7z"/>
  <path class="fil214" d="M81 268l98 85c-2,3 -5,5 -7,8l-96 -84c2,-3 3,-6 5,-9zm211 184l165 144c-2,3 -5,5 -7,8l-166 -145c3,-2 5,-5 8,-7zm277 242l194 170c-3,2 -6,4 -9,6l-193 -169c2,-2 5,-5 7,-7z"/>
  <path class="fil214" d="M76 277l96 84c-3,3 -6,7 -9,10l-93 -81c2,-4 4,-8 6,-12zm208 182l166 145c-3,4 -6,7 -8,11l-167 -147c3,-3 6,-6 10,-9zm277 242l193 169c-4,3 -8,5 -12,8l-191 -167c3,-3 6,-7 9,-10z"/>
  <path class="fil214" d="M76 277l96 84c-2,3 -5,5 -7,8l-94 -82c2,-3 3,-6 5,-10zm208 182l166 145c-2,3 -4,5 -6,8l-167 -146c2,-2 5,-5 8,-7zm277 242l193 169c-3,2 -6,4 -9,6l-192 -168c2,-3 5,-5 7,-8z"/>
  <path class="fil215" d="M71 286l94 82c-2,3 -4,5 -7,8l-92 -80c2,-3 3,-7 5,-10zm205 180l167 146c-2,3 -4,6 -6,8l-168 -147c2,-2 5,-5 7,-7zm277 243l192 168c-3,2 -6,4 -9,6l-189 -166c2,-3 5,-5 7,-8z"/>
  <path class="fil216" d="M67 296l92 80c-2,3 -4,5 -6,8l-90 -79c1,-3 3,-7 4,-10zm203 177l168 147c-2,3 -4,6 -6,9l-170 -149c2,-3 5,-5 7,-8zm278 243l189 166c-3,2 -6,4 -9,6l-187 -164c2,-3 4,-5 7,-8z"/>
  <path class="fil217" d="M62 306l90 79c-2,3 -4,6 -6,9l-88 -77c1,-3 3,-7 4,-10zm200 175l170 149c-2,3 -4,6 -5,9l-171 -150c2,-3 5,-5 7,-8zm278 243l187 164c-3,2 -6,4 -9,6l-184 -161c2,-3 4,-5 6,-8z"/>
  <path class="fil218" d="M58 316l88 77c-2,3 -4,6 -6,9l-86 -76c1,-3 3,-7 4,-10zm197 173l171 150c-2,3 -3,6 -5,9l-173 -151c2,-3 4,-5 7,-8zm279 244l184 161c-3,2 -6,4 -10,5l-181 -158c2,-3 4,-6 6,-8z"/>
  <path class="fil219" d="M54 326l86 76c-2,3 -4,6 -5,9l-85 -74c1,-4 3,-7 4,-10zm195 170l173 151c-2,3 -3,6 -5,10l-175 -153c2,-3 4,-5 6,-8zm279 244l181 158c-3,2 -7,4 -10,5l-177 -155c2,-3 4,-6 6,-9z"/>
  <path class="fil220" d="M50 337l85 74c-2,3 -3,6 -5,9l-83 -73c1,-4 2,-7 4,-11zm192 168l175 153c-2,3 -3,7 -4,10l-176 -154c2,-3 4,-6 6,-8zm280 245l177 155c-3,2 -7,3 -10,5l-172 -151c2,-3 4,-6 5,-9z"/>
  <path class="fil221" d="M46 347l83 73c-2,3 -3,6 -5,10l-82 -72c1,-4 2,-7 3,-11zm190 166l176 154c-1,3 -3,7 -4,11l-178 -156c2,-3 4,-6 6,-9zm280 245l172 151c-3,2 -7,3 -10,5l-167 -146c2,-3 3,-6 5,-9z"/>
  <path class="fil222" d="M43 358l82 72c-2,3 -3,7 -4,10l-81 -71c1,-4 2,-7 3,-11zm187 164l178 156c-1,4 -2,7 -3,11l-181 -158c2,-3 4,-6 5,-9zm281 246l167 146c-3,2 -7,3 -11,5l-161 -141c1,-3 3,-6 5,-10z"/>
  <path class="fil223" d="M40 369l81 71c-1,4 -3,7 -4,11l-80 -70c1,-4 2,-8 3,-11zm185 162l181 158c-1,4 -2,8 -3,11l-183 -160c2,-3 3,-6 5,-9zm282 247l161 141c-4,2 -7,3 -11,4l-154 -135c1,-3 3,-7 4,-10z"/>
  <path class="fil224" d="M37 381l80 70c-1,4 -2,7 -3,11l-80 -70c1,-4 2,-8 3,-11zm183 160l183 160c-1,4 -1,8 -2,12l-186 -162c1,-3 3,-7 5,-10zm283 248l154 135c-4,1 -7,3 -11,4l-147 -129c1,-4 2,-7 4,-11z"/>
  <path class="fil225" d="M34 392l80 70c-1,4 -2,8 -3,12l-79 -70c1,-4 2,-8 2,-12zm181 158l186 162c-1,4 -1,8 -1,13l-188 -165c1,-3 3,-7 4,-10zm284 248l147 129c-4,1 -7,3 -11,4l-139 -121c1,-4 2,-8 3,-11z"/>
  <path class="fil226" d="M32 404l79 70c-1,4 -1,8 -2,12l-80 -70c1,-4 1,-8 2,-12zm179 157l188 165c0,4 0,9 0,13l-191 -168c1,-4 2,-7 3,-11zm285 250l139 121c-4,1 -8,3 -12,4l-129 -113c0,-4 1,-8 2,-12z"/>
  <path class="fil226" d="M30 416l80 70c-1,6 -1,11 -1,17l-81 -71c1,-5 2,-11 2,-16zm178 156l191 168c0,6 0,13 1,19l-196 -171c1,-5 2,-10 3,-15zm287 251l129 113c-5,2 -10,3 -15,4l-115 -100c0,-6 0,-11 1,-17z"/>
  <path class="fil226" d="M30 416l80 70c-1,4 -1,8 -1,13l-80 -70c1,-4 1,-8 2,-12zm178 156l191 168c0,5 0,10 1,14l-195 -171c1,-4 2,-8 3,-11zm287 251l129 113c-4,1 -8,2 -12,3l-118 -103c0,-4 0,-9 1,-13z"/>
  <path class="fil227" d="M28 428l80 70c0,4 0,9 0,14l-82 -71c0,-4 1,-8 2,-12zm177 155l195 171c0,5 1,10 2,15l-199 -174c0,-4 1,-8 2,-12zm288 252l118 103c-4,1 -8,2 -12,3l-106 -93c0,-5 0,-9 0,-14z"/>
  <path class="fil228" d="M26 440l82 71c0,5 0,10 1,14l-83 -73c0,-4 1,-9 1,-13zm177 155l199 174c1,6 2,11 3,17l-203 -177c0,-4 0,-9 1,-13zm291 254l106 93c-4,1 -8,2 -12,3l-91 -80c-1,-5 -2,-10 -2,-16z"/>
  <path class="fil229" d="M25 453l83 73c0,5 1,10 2,15l-86 -75c0,-4 1,-9 1,-13zm177 155l203 177c1,6 3,12 5,18l-207 -181c0,-5 -1,-9 0,-14zm294 257l91 80c-4,1 -8,2 -13,3l-74 -64c-2,-6 -4,-12 -5,-18z"/>
  <path class="fil230" d="M24 466l86 75c1,6 2,11 3,17l-90 -79c0,-4 0,-8 0,-12l0 -1zm178 156l207 181c2,7 5,13 7,20l0 0 -212 -186c-1,-5 -2,-11 -2,-16zm298 261l74 64c-4,1 -9,2 -13,2l-52 -45c-2,-4 -4,-8 -5,-11 -1,-3 -3,-7 -4,-10z"/>
  <path class="fil231" d="M23 479l90 79c1,6 3,12 5,18l-96 -84c0,-5 0,-9 0,-14zm181 159l212 186c3,8 7,15 10,23l-218 -190c-2,-6 -4,-12 -5,-18zm305 267l52 45c-4,1 -9,1 -14,2l-21 -18c-7,-10 -12,-19 -17,-29z"/>
  <path class="fil232" d="M23 493l96 84c2,6 4,12 7,18l1 2 -103 -90c0,-5 0,-9 0,-14zm186 163l218 190c4,9 9,17 14,26l-222 -194c-2,-5 -4,-9 -6,-13 -1,-3 -2,-6 -3,-9zm317 277l21 18c-2,0 -5,1 -7,1 -5,-7 -10,-13 -14,-19z"/>
  <path class="fil233" d="M24 507l103 90c3,8 7,15 11,23l-113 -99c0,-5 -1,-10 -1,-14zm196 171l222 194c6,10 13,21 20,31l-224 -196c-7,-10 -13,-20 -18,-29z"/>
  <path class="fil234" d="M24 521l113 99c4,9 9,18 14,26l-126 -110c0,-5 -1,-10 -1,-15zm213 186l224 196c2,3 4,5 6,8 -26,-18 -50,-36 -73,-53l-115 -101c-17,-18 -31,-35 -42,-51z"/>
  <path class="fil235" d="M25 536l126 110c6,11 13,21 20,32l-145 -127c-1,-5 -1,-10 -2,-15zm254 222l115 101c-47,-36 -85,-69 -115,-101z"/>
  <path class="fil236" d="M27 552l145 127c10,14 21,28 32,42l-175 -153c-1,-5 -2,-11 -2,-16zm446 404l-33 -29c14,10 28,19 43,29 -3,0 -6,0 -10,0z"/>
  <path class="fil237" d="M29 568l175 153c56,66 134,135 235,206l33 29c-4,0 -7,0 -11,0 -2,0 -4,0 -6,0l-423 -371c-1,-5 -2,-11 -3,-16z"/>
  <path class="fil238" d="M32 584l423 371c-6,0 -12,-1 -17,-1l-402 -352c-1,-6 -3,-11 -4,-17z"/>
  <path class="fil239" d="M36 601l402 352c-6,-1 -12,-1 -18,-2l-379 -332c-2,-6 -3,-12 -5,-18z"/>
  <path class="fil240" d="M41 619l379 332c-7,-1 -13,-2 -20,-3l-353 -309c-2,-6 -4,-13 -6,-19z"/>
  <path class="fil241" d="M47 638l353 309c-7,-1 -14,-3 -21,-4l-325 -285c-3,-7 -5,-13 -7,-20z"/>
  <path class="fil242" d="M54 658l325 285c-8,-2 -15,-4 -23,-6l-294 -257c-3,-7 -6,-14 -9,-22z"/>
  <path class="fil243" d="M63 680l294 257c-8,-2 -17,-5 -25,-8l-257 -225c-4,-8 -8,-16 -12,-24z"/>
  <path class="fil244" d="M75 704l257 225c-10,-3 -19,-7 -29,-11l-213 -186c-5,-9 -10,-18 -15,-27z"/>
  <path class="fil245" d="M90 731l213 186c-12,-5 -24,-11 -36,-17l-156 -136c-8,-11 -15,-22 -22,-33z"/>
  <path class="fil246" d="M112 764l156 136c-21,-11 -41,-24 -59,-38l-50 -44c-17,-17 -32,-35 -46,-54z"/>
  <path class="fil247" d="M158 818l50 44c-18,-14 -35,-28 -50,-44z"/>
 </g>
</svg>
