<?xml version="1.0" encoding="UTF-8" standalone="no"?>
<!DOCTYPE svg PUBLIC "-//W3C//DTD SVG 1.1//EN" "http://www.w3.org/Graphics/SVG/1.1/DTD/svg11.dtd">
<svg xmlns="http://www.w3.org/2000/svg" version="1.1" viewbox="0 0 73 73" width="73.0pt" height="73.0pt">
<path d="M 0.00 0.00 L 73.00 0.00 L 73.00 73.00 L 40.72 73.00 L 42.30 72.57 C 44.94 71.67 47.60 70.83 50.24 69.93 C 52.26 69.06 54.21 68.03 56.09 66.88 C 58.39 65.39 60.48 63.64 62.44 61.73 C 65.22 58.75 67.52 55.38 69.29 51.71 C 69.94 50.23 70.54 48.72 71.07 47.19 C 72.17 43.45 72.64 39.57 72.64 35.67 C 72.48 32.45 72.06 29.25 71.22 26.12 C 69.68 21.51 67.47 17.15 64.37 13.39 C 62.41 11.07 60.16 9.03 57.71 7.23 C 52.22 3.26 46.34 1.12 39.58 0.52 C 36.48 0.36 33.39 0.53 30.31 0.89 C 25.81 1.46 21.35 3.51 17.44 5.76 C 14.82 7.40 12.43 9.34 10.27 11.55 C 8.53 13.39 7.09 15.42 5.74 17.55 C 4.24 19.94 3.05 22.49 2.11 25.15 C 1.68 26.65 1.27 28.16 0.95 29.70 C 0.70 31.68 0.52 33.67 0.45 35.66 C -0.17 49.94 8.52 63.69 21.57 69.43 C 25.61 71.12 30.64 73.04 35.03 71.82 C 35.49 72.21 35.95 72.61 36.41 73.00 L 0.00 73.00 L 0.00 0.00 Z" fill="#ffffff" />
<path d="M 30.31 0.89 C 33.79 3.93 37.08 7.18 40.51 10.29 C 39.31 10.72 38.10 11.12 36.89 11.55 C 34.81 12.31 32.77 13.24 30.72 14.10 C 29.90 14.44 29.09 14.81 28.29 15.19 C 24.56 12.17 20.92 9.07 17.44 5.76 C 21.35 3.51 25.81 1.46 30.31 0.89 Z" fill="#77c3e7" />
<path d="M 30.31 0.89 C 33.39 0.53 36.48 0.36 39.58 0.52 C 42.08 3.11 44.66 5.61 47.38 7.97 L 45.79 8.40 C 44.00 8.95 42.26 9.63 40.51 10.29 C 37.08 7.18 33.79 3.93 30.31 0.89 Z" fill="#4eade5" />
<path d="M 39.58 0.52 C 46.34 1.12 52.22 3.26 57.71 7.23 C 54.23 7.24 50.81 7.23 47.38 7.97 C 44.66 5.61 42.08 3.11 39.58 0.52 Z" fill="#319fdd" />
<path d="M 17.44 5.76 C 20.92 9.07 24.56 12.17 28.29 15.19 C 27.48 15.59 26.69 16.00 25.89 16.42 C 24.01 17.42 22.17 18.51 20.38 19.67 C 17.31 16.51 14.31 13.48 10.27 11.55 C 12.43 9.34 14.82 7.40 17.44 5.76 Z" fill="#8fcdbd" />
<path d="M 57.71 7.23 C 60.16 9.03 62.41 11.07 64.37 13.39 C 61.89 14.37 59.40 15.33 56.92 16.31 L 56.16 15.75 C 52.80 13.15 49.34 10.73 45.79 8.40 L 47.38 7.97 C 50.81 7.23 54.23 7.24 57.71 7.23 Z" fill="#519fd9" />
<path d="M 45.79 8.40 C 49.34 10.73 52.80 13.15 56.16 15.75 C 54.19 16.44 52.25 17.20 50.26 17.86 C 49.20 18.20 48.15 18.54 47.09 18.90 C 43.80 16.26 40.52 13.74 36.89 11.55 C 38.10 11.12 39.31 10.72 40.51 10.29 C 42.26 9.63 44.00 8.95 45.79 8.40 Z" fill="#80b5e4" />
<path d="M 10.27 11.55 C 14.31 13.48 17.31 16.51 20.38 19.67 C 17.96 21.29 15.63 23.02 13.47 24.98 C 10.99 22.39 8.50 19.84 5.74 17.55 C 7.09 15.42 8.53 13.39 10.27 11.55 Z" fill="#a1d49a" />
<path d="M 36.89 11.55 C 40.52 13.74 43.80 16.26 47.09 18.90 C 45.21 19.55 43.37 20.33 41.53 21.12 C 41.09 21.30 40.66 21.49 40.22 21.68 C 37.15 19.10 34.07 16.31 30.72 14.10 C 32.77 13.24 34.81 12.31 36.89 11.55 Z" fill="#aecfef" />
<path d="M 30.72 14.10 C 34.07 16.31 37.15 19.10 40.22 21.68 C 38.66 22.38 37.10 23.08 35.57 23.84 C 32.59 21.03 29.54 18.36 25.89 16.42 C 26.69 16.00 27.48 15.59 28.29 15.19 C 29.09 14.81 29.90 14.44 30.72 14.10 Z" fill="#d8e8f8" />
<path d="M 64.37 13.39 C 67.47 17.15 69.68 21.51 71.22 26.12 L 69.06 26.40 C 64.65 23.42 61.21 19.48 56.92 16.31 C 59.40 15.33 61.89 14.37 64.37 13.39 Z" fill="#309fdd" />
<path d="M 56.16 15.75 L 56.92 16.31 C 61.21 19.48 64.65 23.42 69.06 26.40 C 66.74 26.90 64.45 27.64 62.21 28.41 C 57.62 25.32 53.94 22.00 50.26 17.86 C 52.25 17.20 54.19 16.44 56.16 15.75 Z" fill="#4eade5" />
<path d="M 25.89 16.42 C 29.54 18.36 32.59 21.03 35.57 23.84 L 33.31 25.03 C 29.41 27.16 25.59 29.58 22.16 32.40 C 20.56 33.71 19.13 35.19 17.80 36.77 C 16.62 38.23 15.68 39.91 14.87 41.61 C 14.59 42.43 14.33 43.26 14.11 44.10 C 12.08 42.65 10.01 41.25 7.93 39.86 L 7.91 42.21 C 7.72 41.55 7.54 40.89 7.37 40.22 C 7.30 38.27 7.34 36.31 7.51 34.37 C 7.93 33.23 8.38 32.10 8.88 30.99 C 10.15 28.80 11.73 26.81 13.47 24.98 C 15.63 23.02 17.96 21.29 20.38 19.67 C 22.17 18.51 24.01 17.42 25.89 16.42 Z" fill="#fefffe" />
<path d="M 5.74 17.55 C 8.50 19.84 10.99 22.39 13.47 24.98 C 11.73 26.81 10.15 28.80 8.88 30.99 C 6.84 28.77 4.53 26.92 2.11 25.15 C 3.05 22.49 4.24 19.94 5.74 17.55 Z" fill="#aed975" />
<path d="M 50.26 17.86 C 53.94 22.00 57.62 25.32 62.21 28.41 L 60.56 29.01 C 58.21 29.82 55.88 30.66 53.54 31.49 C 48.59 28.98 45.32 25.01 41.53 21.12 C 43.37 20.33 45.21 19.55 47.09 18.90 C 48.15 18.54 49.20 18.20 50.26 17.86 Z" fill="#70bfee" />
<path d="M 41.53 21.12 C 45.32 25.01 48.59 28.98 53.54 31.49 L 53.90 31.71 C 52.47 32.35 51.04 33.00 49.61 33.66 C 48.14 34.33 46.71 35.10 45.32 35.92 C 41.11 32.47 37.10 28.95 33.31 25.03 L 35.57 23.84 C 37.10 23.08 38.66 22.38 40.22 21.68 C 40.66 21.49 41.09 21.30 41.53 21.12 Z" fill="#86cacf" />
<path d="M 33.31 25.03 C 37.10 28.95 41.11 32.47 45.32 35.92 C 41.82 38.09 38.37 40.50 35.39 43.35 C 31.17 39.39 27.16 35.42 22.16 32.40 C 25.59 29.58 29.41 27.16 33.31 25.03 Z" fill="#9cd2a3" />
<path d="M 2.11 25.15 C 4.53 26.92 6.84 28.77 8.88 30.99 C 8.38 32.10 7.93 33.23 7.51 34.37 C 5.33 32.81 3.15 31.24 0.95 29.70 C 1.27 28.16 1.68 26.65 2.11 25.15 Z" fill="#8fca4b" />
<path d="M 69.06 26.40 L 71.22 26.12 C 72.06 29.25 72.48 32.45 72.64 35.67 C 71.63 36.01 70.63 36.34 69.63 36.69 C 66.93 33.72 64.07 31.00 60.56 29.01 L 62.21 28.41 C 64.45 27.64 66.74 26.90 69.06 26.40 Z" fill="#84b8e5" />
<path d="M 60.56 29.01 C 64.07 31.00 66.93 33.72 69.63 36.69 C 67.61 37.39 65.60 38.14 63.60 38.90 C 60.61 36.10 57.46 33.73 53.90 31.71 L 53.54 31.49 C 55.88 30.66 58.21 29.82 60.56 29.01 Z" fill="#aecfee" />
<path d="M 0.95 29.70 C 3.15 31.24 5.33 32.81 7.51 34.37 C 7.34 36.31 7.30 38.27 7.37 40.22 C 5.07 38.69 2.75 37.19 0.45 35.66 C 0.52 33.67 0.70 31.68 0.95 29.70 Z" fill="#7ec326" />
<path d="M 53.90 31.71 C 57.46 33.73 60.61 36.10 63.60 38.90 C 62.17 39.60 60.73 40.29 59.29 40.98 C 56.05 38.57 52.93 35.97 49.61 33.66 C 51.04 33.00 52.47 32.35 53.90 31.71 Z" fill="#d6e6f7" />
<path d="M 22.16 32.40 C 27.16 35.42 31.17 39.39 35.39 43.35 C 33.89 45.09 32.50 46.94 31.28 48.89 C 27.16 44.43 22.60 40.47 17.80 36.77 C 19.13 35.19 20.56 33.71 22.16 32.40 Z" fill="#b1da7b" />
<path d="M 49.61 33.66 C 52.93 35.97 56.05 38.57 59.29 40.98 L 57.68 41.78 C 53.99 43.68 50.44 45.85 47.08 48.29 C 44.82 49.93 42.75 51.83 40.88 53.90 C 39.51 55.53 38.36 57.36 37.39 59.25 C 34.87 57.65 32.38 56.01 29.83 54.48 C 30.20 52.59 30.67 50.72 31.28 48.89 C 32.50 46.94 33.89 45.09 35.39 43.35 C 38.37 40.50 41.82 38.09 45.32 35.92 C 46.71 35.10 48.14 34.33 49.61 33.66 Z" fill="#ffffff" />
<path d="M 0.45 35.66 C 2.75 37.19 5.07 38.69 7.37 40.22 C 7.54 40.89 7.72 41.55 7.91 42.21 C 9.33 47.23 12.58 51.71 16.03 55.54 C 21.60 61.97 28.48 66.54 35.03 71.82 C 30.64 73.04 25.61 71.12 21.57 69.43 C 8.52 63.69 -0.17 49.94 0.45 35.66 Z" fill="#69b24d" />
<path d="M 72.64 35.67 C 72.64 39.57 72.17 43.45 71.07 47.19 C 68.07 44.78 65.50 42.29 63.60 38.90 C 65.60 38.14 67.61 37.39 69.63 36.69 C 70.63 36.34 71.63 36.01 72.64 35.67 Z" fill="#72c1ef" />
<path d="M 17.80 36.77 C 22.60 40.47 27.16 44.43 31.28 48.89 C 30.67 50.72 30.20 52.59 29.83 54.48 L 29.81 57.11 C 29.14 54.98 28.14 53.05 26.53 51.47 C 22.93 47.89 18.94 44.64 14.87 41.61 C 15.68 39.91 16.62 38.23 17.80 36.77 Z" fill="#93cc50" />
<path d="M 63.60 38.90 C 65.50 42.29 68.07 44.78 71.07 47.19 C 70.54 48.72 69.94 50.23 69.29 51.71 C 65.48 48.33 61.63 45.00 57.68 41.78 L 59.29 40.98 C 60.73 40.29 62.17 39.60 63.60 38.90 Z" fill="#81c8db" />
<path d="M 7.93 39.86 C 10.01 41.25 12.08 42.65 14.11 44.10 C 14.07 47.72 15.17 50.51 16.97 53.58 L 16.03 55.54 C 12.58 51.71 9.33 47.23 7.91 42.21 L 7.93 39.86 Z" fill="#def0fd" />
<path d="M 14.87 41.61 C 18.94 44.64 22.93 47.89 26.53 51.47 C 28.14 53.05 29.14 54.98 29.81 57.11 C 30.41 59.84 31.25 62.48 32.56 64.95 C 33.39 66.44 34.26 67.90 35.11 69.37 C 28.41 64.69 22.14 59.99 16.97 53.58 C 15.17 50.51 14.07 47.72 14.11 44.10 C 14.33 43.26 14.59 42.43 14.87 41.61 Z" fill="#7abf31" />
<path d="M 57.68 41.78 C 61.63 45.00 65.48 48.33 69.29 51.71 C 67.52 55.38 65.22 58.75 62.44 61.73 C 57.42 57.19 52.54 52.29 47.08 48.29 C 50.44 45.85 53.99 43.68 57.68 41.78 Z" fill="#93cfb3" />
<path d="M 47.08 48.29 C 52.54 52.29 57.42 57.19 62.44 61.73 C 60.48 63.64 58.39 65.39 56.09 66.88 C 51.00 62.58 46.04 58.11 40.88 53.90 C 42.75 51.83 44.82 49.93 47.08 48.29 Z" fill="#acd88a" />
<path d="M 16.97 53.58 C 22.14 59.99 28.41 64.69 35.11 69.37 C 34.26 67.90 33.39 66.44 32.56 64.95 C 34.10 65.49 35.64 66.05 37.17 66.62 C 38.04 68.46 39.03 70.25 40.07 72.00 L 42.30 72.57 L 40.72 73.00 L 36.41 73.00 C 35.95 72.61 35.49 72.21 35.03 71.82 C 28.48 66.54 21.60 61.97 16.03 55.54 L 16.97 53.58 Z" fill="#d3ebfb" />
<path d="M 40.88 53.90 C 46.04 58.11 51.00 62.58 56.09 66.88 C 54.21 68.03 52.26 69.06 50.24 69.93 C 45.95 66.34 42.13 62.39 37.31 59.48 L 37.39 59.25 C 38.36 57.36 39.51 55.53 40.88 53.90 Z" fill="#a0d262" />
<path d="M 29.83 54.48 C 32.38 56.01 34.87 57.65 37.39 59.25 L 37.31 59.48 C 36.81 61.85 36.83 64.23 37.17 66.62 C 35.64 66.05 34.10 65.49 32.56 64.95 C 31.25 62.48 30.41 59.84 29.81 57.11 L 29.83 54.48 Z" fill="#e3f2fd" />
<path d="M 37.31 59.48 C 42.13 62.39 45.95 66.34 50.24 69.93 C 47.60 70.83 44.94 71.67 42.30 72.57 L 40.07 72.00 C 39.03 70.25 38.04 68.46 37.17 66.62 C 36.83 64.23 36.81 61.85 37.31 59.48 Z" fill="#80c42c" />
</svg>